<svg width="261" height="63" viewBox="0 0 261 63" fill="none" xmlns="http://www.w3.org/2000/svg">
<path d="M6.15588 21.9062V49H0.343384V15.1875H5.84338L6.15588 21.9062ZM4.96838 30.8125L2.28088 30.7188C2.30172 28.4062 2.6038 26.2708 3.18713 24.3125C3.77047 22.3333 4.63505 20.6146 5.78088 19.1562C6.92672 17.6979 8.3538 16.5729 10.0621 15.7812C11.7705 14.9688 13.7496 14.5625 15.9996 14.5625C17.583 14.5625 19.0413 14.7917 20.3746 15.25C21.708 15.6875 22.8642 16.3854 23.8434 17.3438C24.8226 18.3021 25.583 19.5312 26.1246 21.0312C26.6663 22.5312 26.9371 24.3438 26.9371 26.4688V49H21.1559V26.75C21.1559 24.9792 20.8538 23.5625 20.2496 22.5C19.6663 21.4375 18.833 20.6667 17.7496 20.1875C16.6663 19.6875 15.3955 19.4375 13.9371 19.4375C12.2288 19.4375 10.8017 19.7396 9.65588 20.3438C8.51005 20.9479 7.59338 21.7812 6.90588 22.8438C6.21838 23.9062 5.71838 25.125 5.40588 26.5C5.11422 27.8542 4.96838 29.2917 4.96838 30.8125ZM26.8746 27.625L22.9996 28.8125C23.0205 26.9583 23.3226 25.1771 23.9059 23.4688C24.5101 21.7604 25.3746 20.2396 26.4996 18.9062C27.6455 17.5729 29.0517 16.5208 30.7184 15.75C32.3851 14.9583 34.2913 14.5625 36.4371 14.5625C38.2496 14.5625 39.8538 14.8021 41.2496 15.2812C42.6663 15.7604 43.8538 16.5 44.8121 17.5C45.7913 18.4792 46.5309 19.7396 47.0309 21.2812C47.5309 22.8229 47.7809 24.6562 47.7809 26.7812V49H41.9684V26.7188C41.9684 24.8229 41.6663 23.3542 41.0621 22.3125C40.4788 21.25 39.6455 20.5104 38.5621 20.0938C37.4996 19.6562 36.2288 19.4375 34.7496 19.4375C33.4788 19.4375 32.3538 19.6562 31.3746 20.0938C30.3955 20.5312 29.5726 21.1354 28.9059 21.9062C28.2392 22.6562 27.7288 23.5208 27.3746 24.5C27.0413 25.4792 26.8746 26.5208 26.8746 27.625ZM62.8121 15.1875V49H56.9996V15.1875H62.8121ZM56.5621 6.21875C56.5621 5.28125 56.8434 4.48958 57.4059 3.84375C57.9892 3.19792 58.8434 2.875 59.9684 2.875C61.0726 2.875 61.9163 3.19792 62.4996 3.84375C63.1038 4.48958 63.4059 5.28125 63.4059 6.21875C63.4059 7.11458 63.1038 7.88542 62.4996 8.53125C61.9163 9.15625 61.0726 9.46875 59.9684 9.46875C58.8434 9.46875 57.9892 9.15625 57.4059 8.53125C56.8434 7.88542 56.5621 7.11458 56.5621 6.21875ZM77.8746 22.4062V49H72.0934V15.1875H77.5621L77.8746 22.4062ZM76.4996 30.8125L74.0934 30.7188C74.1142 28.4062 74.458 26.2708 75.1246 24.3125C75.7913 22.3333 76.7288 20.6146 77.9371 19.1562C79.1455 17.6979 80.583 16.5729 82.2496 15.7812C83.9371 14.9688 85.8017 14.5625 87.8434 14.5625C89.5101 14.5625 91.0101 14.7917 92.3434 15.25C93.6767 15.6875 94.8121 16.3958 95.7496 17.375C96.708 18.3542 97.4371 19.625 97.9371 21.1875C98.4371 22.7292 98.6871 24.6146 98.6871 26.8438V49H92.8746V26.7812C92.8746 25.0104 92.6142 23.5938 92.0934 22.5312C91.5726 21.4479 90.8121 20.6667 89.8121 20.1875C88.8121 19.6875 87.583 19.4375 86.1246 19.4375C84.6871 19.4375 83.3746 19.7396 82.1871 20.3438C81.0205 20.9479 80.0101 21.7812 79.1559 22.8438C78.3226 23.9062 77.6663 25.125 77.1871 26.5C76.7288 27.8542 76.4996 29.2917 76.4996 30.8125ZM121.625 15.1875V19.625H103.343V15.1875H121.625ZM109.531 6.96875H115.312V40.625C115.312 41.7708 115.489 42.6354 115.843 43.2188C116.198 43.8021 116.656 44.1875 117.218 44.375C117.781 44.5625 118.385 44.6562 119.031 44.6562C119.51 44.6562 120.01 44.6146 120.531 44.5312C121.073 44.4271 121.479 44.3438 121.75 44.2812L121.781 49C121.323 49.1458 120.718 49.2812 119.968 49.4062C119.239 49.5521 118.354 49.625 117.312 49.625C115.895 49.625 114.593 49.3438 113.406 48.7812C112.218 48.2188 111.27 47.2812 110.562 45.9688C109.875 44.6354 109.531 42.8438 109.531 40.5938V6.96875ZM136.125 49H130.343V12.25C130.343 9.6875 130.843 7.52083 131.843 5.75C132.843 3.97917 134.27 2.63542 136.125 1.71875C137.979 0.802083 140.177 0.34375 142.718 0.34375C144.218 0.34375 145.687 0.53125 147.125 0.90625C148.562 1.26042 150.041 1.70833 151.562 2.25L150.593 7.125C149.635 6.75 148.52 6.39583 147.25 6.0625C146 5.70833 144.625 5.53125 143.125 5.53125C140.645 5.53125 138.854 6.09375 137.75 7.21875C136.666 8.32292 136.125 10 136.125 12.25V49ZM143.031 15.1875V19.625H125V15.1875H143.031ZM154.406 15.1875V49H148.625V15.1875H154.406ZM169.687 22.4062V49H163.906V15.1875H169.375L169.687 22.4062ZM168.312 30.8125L165.906 30.7188C165.927 28.4062 166.27 26.2708 166.937 24.3125C167.604 22.3333 168.541 20.6146 169.75 19.1562C170.958 17.6979 172.395 16.5729 174.062 15.7812C175.75 14.9688 177.614 14.5625 179.656 14.5625C181.323 14.5625 182.823 14.7917 184.156 15.25C185.489 15.6875 186.625 16.3958 187.562 17.375C188.52 18.3542 189.25 19.625 189.75 21.1875C190.25 22.7292 190.5 24.6146 190.5 26.8438V49H184.687V26.7812C184.687 25.0104 184.427 23.5938 183.906 22.5312C183.385 21.4479 182.625 20.6667 181.625 20.1875C180.625 19.6875 179.395 19.4375 177.937 19.4375C176.5 19.4375 175.187 19.7396 174 20.3438C172.833 20.9479 171.823 21.7812 170.968 22.8438C170.135 23.9062 169.479 25.125 169 26.5C168.541 27.8542 168.312 29.2917 168.312 30.8125ZM205.562 15.1875V49H199.75V15.1875H205.562ZM199.312 6.21875C199.312 5.28125 199.593 4.48958 200.156 3.84375C200.739 3.19792 201.593 2.875 202.718 2.875C203.823 2.875 204.666 3.19792 205.25 3.84375C205.854 4.48958 206.156 5.28125 206.156 6.21875C206.156 7.11458 205.854 7.88542 205.25 8.53125C204.666 9.15625 203.823 9.46875 202.718 9.46875C201.593 9.46875 200.739 9.15625 200.156 8.53125C199.593 7.88542 199.312 7.11458 199.312 6.21875ZM229 15.1875V19.625H210.718V15.1875H229ZM216.906 6.96875H222.687V40.625C222.687 41.7708 222.864 42.6354 223.218 43.2188C223.573 43.8021 224.031 44.1875 224.593 44.375C225.156 44.5625 225.76 44.6562 226.406 44.6562C226.885 44.6562 227.385 44.6146 227.906 44.5312C228.448 44.4271 228.854 44.3438 229.125 44.2812L229.156 49C228.698 49.1458 228.093 49.2812 227.343 49.4062C226.614 49.5521 225.729 49.625 224.687 49.625C223.27 49.625 221.968 49.3438 220.781 48.7812C219.593 48.2188 218.645 47.2812 217.937 45.9688C217.25 44.6354 216.906 42.8438 216.906 40.5938V6.96875ZM245.281 45.5L254.687 15.1875H260.875L247.312 54.2188C247 55.0521 246.583 55.9479 246.062 56.9062C245.562 57.8854 244.916 58.8125 244.125 59.6875C243.333 60.5625 242.375 61.2708 241.25 61.8125C240.145 62.375 238.823 62.6562 237.281 62.6562C236.823 62.6562 236.239 62.5938 235.531 62.4688C234.823 62.3438 234.323 62.2396 234.031 62.1562L234 57.4688C234.166 57.4896 234.427 57.5104 234.781 57.5312C235.156 57.5729 235.416 57.5938 235.562 57.5938C236.875 57.5938 237.989 57.4167 238.906 57.0625C239.823 56.7292 240.593 56.1562 241.218 55.3438C241.864 54.5521 242.416 53.4583 242.875 52.0625L245.281 45.5ZM238.375 15.1875L247.156 41.4375L248.656 47.5312L244.5 49.6562L232.062 15.1875H238.375Z" fill="white"/>
</svg>
