<svg width="1198" height="313" viewBox="0 0 1198 313" fill="none" xmlns="http://www.w3.org/2000/svg">
<path d="M160.281 253.109H161.281V253.088L161.28 253.066L160.281 253.109ZM160.281 293V294H161.281V293H160.281ZM151.609 293H150.609V294H151.609V293ZM151.609 242.281V241.281H150.609V242.281H151.609ZM159.812 242.281L160.812 242.238L160.77 241.281H159.812V242.281ZM158.219 265.719L158.18 266.718L159.219 266.758V265.719H158.219ZM154.609 265.578L153.609 265.569L153.601 266.54L154.57 266.577L154.609 265.578ZM156.156 255.969L157.103 256.291L157.104 256.288L156.156 255.969ZM166.844 243.172L167.273 244.075L167.278 244.073L166.844 243.172ZM181.984 242.375L181.659 243.321L181.673 243.325L181.984 242.375ZM187.094 245.562L186.371 246.254L186.379 246.262L187.094 245.562ZM190.375 251.281L189.423 251.586L189.424 251.59L190.375 251.281ZM191.5 293V294H192.5V293H191.5ZM182.781 293H181.781V294H182.781V293ZM181.609 253.297L180.708 253.73L180.711 253.737L181.609 253.297ZM178.188 249.781L177.74 250.676L177.748 250.679L177.755 250.683L178.188 249.781ZM166.75 250.016L166.297 249.124L166.29 249.128L166.75 250.016ZM162.203 253.766L161.424 253.139L161.416 253.148L162.203 253.766ZM159.25 259.25L158.306 258.921L158.303 258.929L159.25 259.25ZM159.281 253.109V293H161.281V253.109H159.281ZM160.281 292H151.609V294H160.281V292ZM152.609 293V242.281H150.609V293H152.609ZM151.609 243.281H159.812V241.281H151.609V243.281ZM158.813 242.324L159.282 253.153L161.28 253.066L160.812 242.238L158.813 242.324ZM158.258 264.72L154.648 264.579L154.57 266.577L158.18 266.718L158.258 264.72ZM155.609 265.587C155.64 262.213 156.141 259.116 157.103 256.291L155.21 255.646C154.171 258.696 153.642 262.006 153.609 265.569L155.609 265.587ZM157.104 256.288C158.069 253.424 159.418 250.956 161.145 248.872L159.605 247.596C157.707 249.888 156.244 252.576 155.209 255.65L157.104 256.288ZM161.145 248.872C162.867 246.794 164.908 245.198 167.273 244.075L166.415 242.269C163.78 243.52 161.508 245.3 159.605 247.596L161.145 248.872ZM167.278 244.073C169.662 242.925 172.308 242.344 175.234 242.344V240.344C172.035 240.344 169.088 240.981 166.41 242.271L167.278 244.073ZM175.234 242.344C177.643 242.344 179.781 242.675 181.659 243.321L182.309 241.429C180.188 240.7 177.825 240.344 175.234 240.344V242.344ZM181.673 243.325C183.522 243.932 185.083 244.908 186.371 246.254L187.816 244.871C186.292 243.279 184.446 242.13 182.296 241.425L181.673 243.325ZM186.379 246.262C187.688 247.6 188.711 249.362 189.423 251.586L191.327 250.976C190.539 248.513 189.374 246.463 187.808 244.863L186.379 246.262ZM189.424 251.59C190.132 253.773 190.5 256.49 190.5 259.766H192.5C192.5 256.354 192.118 253.414 191.326 250.973L189.424 251.59ZM190.5 259.766V293H192.5V259.766H190.5ZM191.5 292H182.781V294H191.5V292ZM183.781 293V259.672H181.781V293H183.781ZM183.781 259.672C183.781 256.932 183.381 254.638 182.507 252.857L180.711 253.737C181.401 255.143 181.781 257.099 181.781 259.672H183.781ZM182.511 252.864C181.64 251.052 180.342 249.705 178.62 248.879L177.755 250.683C179.033 251.295 180.017 252.292 180.708 253.73L182.511 252.864ZM178.635 248.887C176.96 248.05 174.953 247.656 172.656 247.656V249.656C174.734 249.656 176.415 250.013 177.74 250.676L178.635 248.887ZM172.656 247.656C170.355 247.656 168.229 248.141 166.297 249.124L167.203 250.907C168.833 250.078 170.645 249.656 172.656 249.656V247.656ZM166.29 249.128C164.412 250.1 162.789 251.441 161.424 253.139L162.983 254.392C164.18 252.903 165.588 251.743 167.21 250.904L166.29 249.128ZM161.416 253.148C160.093 254.835 159.058 256.763 158.306 258.921L160.194 259.579C160.88 257.612 161.813 255.883 162.99 254.383L161.416 253.148ZM158.303 258.929C157.578 261.07 157.219 263.335 157.219 265.719H159.219C159.219 263.54 159.547 261.492 160.197 259.571L158.303 258.929ZM234.409 293V294H235.409V293H234.409ZM225.738 293H224.738V294H225.738V293ZM227.706 227.703L226.823 227.234L226.821 227.238L227.706 227.703ZM233.472 221.984L233.928 222.874L233.937 222.87L233.472 221.984ZM245.378 220.203L245.254 221.195L245.258 221.196L245.378 220.203ZM248.378 220.766L249.376 220.832L249.431 220.005L248.628 219.797L248.378 220.766ZM247.909 227.844L247.678 228.817L248.829 229.091L248.907 227.91L247.909 227.844ZM245.659 227.516L245.583 228.513L245.586 228.513L245.659 227.516ZM238.441 228.547L238.921 229.424L238.928 229.42L238.441 228.547ZM245.191 242.281H246.191V241.281H245.191V242.281ZM245.191 248.938V249.938H246.191V248.938H245.191ZM217.722 248.938H216.722V249.938H217.722V248.938ZM217.722 242.281V241.281H216.722V242.281H217.722ZM234.409 292H225.738V294H234.409V292ZM226.738 293V236.938H224.738V293H226.738ZM226.738 236.938C226.738 233.397 227.373 230.489 228.592 228.168L226.821 227.238C225.414 229.918 224.738 233.166 224.738 236.938H226.738ZM228.59 228.172C229.839 225.818 231.614 224.06 233.928 222.874L233.016 221.094C230.33 222.471 228.261 224.526 226.823 227.234L228.59 228.172ZM233.937 222.87C236.265 221.647 239.068 221.016 242.378 221.016V219.016C238.814 219.016 235.678 219.697 233.007 221.099L233.937 222.87ZM242.378 221.016C243.336 221.016 244.295 221.076 245.254 221.195L245.502 219.211C244.461 219.081 243.42 219.016 242.378 219.016V221.016ZM245.258 221.196C246.247 221.316 247.204 221.495 248.128 221.734L248.628 219.797C247.615 219.536 246.572 219.34 245.498 219.21L245.258 221.196ZM247.38 220.7L246.912 227.778L248.907 227.91L249.376 220.832L247.38 220.7ZM248.141 226.871C247.422 226.7 246.617 226.584 245.733 226.518L245.586 228.513C246.389 228.572 247.084 228.675 247.678 228.817L248.141 226.871ZM245.736 226.519C244.898 226.454 244.06 226.422 243.222 226.422V228.422C244.009 228.422 244.796 228.452 245.583 228.513L245.736 226.519ZM243.222 226.422C241.241 226.422 239.473 226.825 237.953 227.674L238.928 229.42C240.096 228.768 241.515 228.422 243.222 228.422V226.422ZM237.96 227.67C236.458 228.493 235.316 229.712 234.542 231.295L236.339 232.174C236.94 230.944 237.798 230.039 238.921 229.424L237.96 227.67ZM234.542 231.295C233.77 232.874 233.409 234.769 233.409 236.938H235.409C235.409 234.981 235.736 233.407 236.339 232.174L234.542 231.295ZM233.409 236.938V293H235.409V236.938H233.409ZM244.191 242.281V248.938H246.191V242.281H244.191ZM245.191 247.938H217.722V249.938H245.191V247.938ZM218.722 248.938V242.281H216.722V248.938H218.722ZM217.722 243.281H245.191V241.281H217.722V243.281ZM292.881 242.281H293.881V241.281H292.881V242.281ZM292.881 248.938V249.938H293.881V248.938H292.881ZM265.459 248.938H264.459V249.938H265.459V248.938ZM265.459 242.281V241.281H264.459V242.281H265.459ZM274.741 229.953V228.953H273.741V229.953H274.741ZM283.412 229.953H284.412V228.953H283.412V229.953ZM291.241 286.297L291.399 287.284L291.414 287.282L291.429 287.279L291.241 286.297ZM293.069 285.922L294.069 285.915L294.06 284.667L292.844 284.947L293.069 285.922ZM293.116 293L293.419 293.953L294.12 293.73L294.116 292.993L293.116 293ZM290.397 293.609L290.232 292.623L290.217 292.626L290.201 292.629L290.397 293.609ZM276.287 288.453L275.399 288.911L275.403 288.92L275.407 288.928L276.287 288.453ZM291.881 242.281V248.938H293.881V242.281H291.881ZM292.881 247.938H265.459V249.938H292.881V247.938ZM266.459 248.938V242.281H264.459V248.938H266.459ZM265.459 243.281H292.881V241.281H265.459V243.281ZM274.741 230.953H283.412V228.953H274.741V230.953ZM282.412 229.953V280.438H284.412V229.953H282.412ZM282.412 280.438C282.412 282.229 282.684 283.743 283.355 284.847L285.064 283.809C284.672 283.164 284.412 282.084 284.412 280.438H282.412ZM283.355 284.847C283.989 285.892 284.854 286.644 285.956 287.011L286.588 285.114C286.003 284.919 285.492 284.514 285.064 283.809L283.355 284.847ZM285.956 287.011C286.91 287.329 287.924 287.484 288.991 287.484V285.484C288.12 285.484 287.321 285.358 286.588 285.114L285.956 287.011ZM288.991 287.484C289.767 287.484 290.57 287.417 291.399 287.284L291.083 285.309C290.348 285.427 289.651 285.484 288.991 285.484V287.484ZM291.429 287.279C292.245 287.122 292.869 286.994 293.294 286.896L292.844 284.947C292.456 285.037 291.861 285.159 291.052 285.315L291.429 287.279ZM292.069 285.928L292.116 293.007L294.116 292.993L294.069 285.915L292.069 285.928ZM292.812 292.047C292.189 292.246 291.334 292.439 290.232 292.623L290.561 294.596C291.71 294.404 292.668 294.192 293.419 293.953L292.812 292.047ZM290.201 292.629C289.191 292.831 287.933 292.938 286.412 292.938V294.938C288.017 294.938 289.415 294.826 290.593 294.59L290.201 292.629ZM286.412 292.938C284.424 292.938 282.618 292.544 280.981 291.768L280.125 293.576C282.05 294.488 284.151 294.938 286.412 294.938V292.938ZM280.981 291.768C279.418 291.028 278.143 289.786 277.168 287.978L275.407 288.928C276.557 291.058 278.126 292.629 280.125 293.576L280.981 291.768ZM277.176 287.995C276.246 286.19 275.741 283.679 275.741 280.391H273.741C273.741 283.852 274.267 286.717 275.399 288.911L277.176 287.995ZM275.741 280.391V229.953H273.741V280.391H275.741ZM369.091 252.359H370.091V252.336L370.09 252.313L369.091 252.359ZM369.091 293V294H370.091V293H369.091ZM360.372 293H359.372V294H360.372V293ZM360.372 242.281V241.281H359.372V242.281H360.372ZM368.622 242.281L369.621 242.235L369.576 241.281H368.622V242.281ZM367.309 265.719L367.275 266.718L368.309 266.754V265.719H367.309ZM363.278 265.578L362.278 265.569L362.269 266.544L363.243 266.578L363.278 265.578ZM364.637 255.969L365.596 256.254L365.597 256.251L364.637 255.969ZM374.95 243.172L375.37 244.079L375.38 244.075L374.95 243.172ZM390.419 242.375L390.094 243.321L390.107 243.325L390.419 242.375ZM400.262 293V294H401.262V293H400.262ZM391.591 293H390.591V294H391.591V293ZM390.231 253.25L389.355 253.731L389.358 253.738L389.362 253.744L390.231 253.25ZM386.481 249.781L386.062 250.689L386.069 250.693L386.077 250.696L386.481 249.781ZM367.966 259.25L366.99 259.028L366.988 259.039L367.966 259.25ZM400.169 260.938L400.462 261.894L401.169 261.677V260.938H400.169ZM394.356 262.719L393.356 262.708L393.341 264.076L394.649 263.675L394.356 262.719ZM395.716 254.703L394.773 254.37L394.769 254.38L395.716 254.703ZM399.606 247.859L398.848 247.208L398.842 247.215L399.606 247.859ZM405.934 243.125L406.354 244.033L406.363 244.028L405.934 243.125ZM421.731 242.422L421.407 243.368L421.411 243.369L421.731 242.422ZM427.075 245.75L426.353 246.442L426.36 246.45L426.368 246.457L427.075 245.75ZM431.528 293V294H432.528V293H431.528ZM422.809 293H421.809V294H422.809V293ZM421.45 252.969L420.573 253.45L420.579 253.46L420.585 253.47L421.45 252.969ZM417.7 249.641L417.319 250.565L417.33 250.57L417.341 250.574L417.7 249.641ZM403.216 252.359L403.963 253.024L403.972 253.014L403.216 252.359ZM400.919 256.25L399.978 255.91L399.975 255.919L399.972 255.928L400.919 256.25ZM368.091 252.359V293H370.091V252.359H368.091ZM369.091 292H360.372V294H369.091V292ZM361.372 293V242.281H359.372V293H361.372ZM360.372 243.281H368.622V241.281H360.372V243.281ZM367.623 242.328L368.092 252.406L370.09 252.313L369.621 242.235L367.623 242.328ZM367.344 264.719L363.313 264.579L363.243 266.578L367.275 266.718L367.344 264.719ZM364.278 265.587C364.309 262.2 364.751 259.091 365.596 256.254L363.679 255.683C362.774 258.721 362.31 262.019 362.278 265.569L364.278 265.587ZM365.597 256.251C366.44 253.391 367.682 250.929 369.314 248.852L367.742 247.617C365.936 249.914 364.585 252.609 363.678 255.686L365.597 256.251ZM369.314 248.852C370.934 246.791 372.949 245.201 375.37 244.079L374.53 242.265C371.826 243.517 369.56 245.303 367.742 247.617L369.314 248.852ZM375.38 244.075C377.785 242.931 380.602 242.344 383.856 242.344V240.344C380.36 240.344 377.24 240.975 374.52 242.269L375.38 244.075ZM383.856 242.344C386.134 242.344 388.21 242.673 390.094 243.321L390.744 241.429C388.627 240.702 386.328 240.344 383.856 240.344V242.344ZM390.107 243.325C391.965 243.935 393.566 244.903 394.922 246.23L396.321 244.801C394.74 243.254 392.872 242.128 390.731 241.425L390.107 243.325ZM394.922 246.23C396.267 247.547 397.333 249.255 398.103 251.387L399.984 250.707C399.129 248.339 397.914 246.36 396.321 244.801L394.922 246.23ZM398.103 251.387C398.866 253.498 399.262 256.095 399.262 259.203H401.262C401.262 255.936 400.847 253.096 399.984 250.707L398.103 251.387ZM399.262 259.203V293H401.262V259.203H399.262ZM400.262 292H391.591V294H400.262V292ZM392.591 293V259.625H390.591V293H392.591ZM392.591 259.625C392.591 256.868 392.122 254.553 391.101 252.756L389.362 253.744C390.153 255.135 390.591 257.069 390.591 259.625H392.591ZM391.108 252.769C390.13 250.988 388.716 249.676 386.886 248.867L386.077 250.696C387.496 251.324 388.583 252.325 389.355 253.731L391.108 252.769ZM386.9 248.873C385.118 248.051 383.063 247.656 380.762 247.656V249.656C382.837 249.656 384.594 250.012 386.062 250.689L386.9 248.873ZM380.762 247.656C378.087 247.656 375.775 248.129 373.874 249.131L374.807 250.9C376.344 250.09 378.313 249.656 380.762 249.656V247.656ZM373.874 249.131C372.008 250.115 370.503 251.481 369.376 253.222L371.055 254.309C371.991 252.862 373.236 251.728 374.807 250.9L373.874 249.131ZM369.376 253.222C368.274 254.925 367.482 256.865 366.99 259.028L368.941 259.472C369.386 257.51 370.094 255.794 371.055 254.309L369.376 253.222ZM366.988 259.039C366.534 261.146 366.309 263.374 366.309 265.719H368.309C368.309 263.501 368.522 261.416 368.943 259.461L366.988 259.039ZM399.876 259.981L394.063 261.763L394.649 263.675L400.462 261.894L399.876 259.981ZM395.356 262.73C395.386 260.052 395.822 257.486 396.662 255.026L394.769 254.38C393.859 257.046 393.389 259.823 393.356 262.708L395.356 262.73ZM396.658 255.037C397.526 252.583 398.764 250.408 400.371 248.504L398.842 247.215C397.074 249.31 395.718 251.698 394.773 254.37L396.658 255.037ZM400.365 248.511C401.986 246.625 403.978 245.132 406.354 244.033L405.515 242.217C402.891 243.431 400.664 245.094 398.848 247.208L400.365 248.511ZM406.363 244.028C408.709 242.914 411.418 242.344 414.512 242.344V240.344C411.169 240.344 408.16 240.961 405.505 242.222L406.363 244.028ZM414.512 242.344C417.145 242.344 419.438 242.692 421.407 243.368L422.056 241.476C419.837 240.714 417.317 240.344 414.512 240.344V242.344ZM421.411 243.369C423.396 244.041 425.036 245.067 426.353 246.442L427.797 245.058C426.239 243.433 424.317 242.241 422.052 241.475L421.411 243.369ZM426.368 246.457C427.707 247.797 428.742 249.543 429.452 251.73L431.354 251.113C430.564 248.676 429.38 246.641 427.782 245.043L426.368 246.457ZM429.452 251.73C430.161 253.918 430.528 256.558 430.528 259.672H432.528C432.528 256.41 432.145 253.551 431.354 251.113L429.452 251.73ZM430.528 259.672V293H432.528V259.672H430.528ZM431.528 292H422.809V294H431.528V292ZM423.809 293V259.578H421.809V293H423.809ZM423.809 259.578C423.809 256.65 423.347 254.246 422.315 252.467L420.585 253.47C421.366 254.817 421.809 256.819 421.809 259.578H423.809ZM422.327 252.487C421.343 250.697 419.915 249.421 418.059 248.707L417.341 250.574C418.735 251.11 419.807 252.053 420.573 253.45L422.327 252.487ZM418.081 248.716C416.337 247.998 414.295 247.656 411.981 247.656V249.656C414.105 249.656 415.876 249.971 417.319 250.565L418.081 248.716ZM411.981 247.656C409.96 247.656 408.129 248.004 406.511 248.728L407.327 250.554C408.646 249.964 410.19 249.656 411.981 249.656V247.656ZM406.511 248.728C404.916 249.44 403.56 250.432 402.459 251.705L403.972 253.014C404.871 251.974 405.984 251.153 407.327 250.554L406.511 248.728ZM402.468 251.695C401.381 252.918 400.551 254.326 399.978 255.91L401.859 256.59C402.349 255.236 403.051 254.05 403.963 253.024L402.468 251.695ZM399.972 255.928C399.434 257.507 399.169 259.179 399.169 260.938H401.169C401.169 259.383 401.403 257.93 401.865 256.572L399.972 255.928ZM490.141 253.016L489.254 253.478L489.26 253.489L489.266 253.5L490.141 253.016ZM474.906 249.453L474.494 248.542L474.487 248.545L474.906 249.453ZM471.062 252.406L470.27 251.797L470.265 251.803L470.26 251.81L471.062 252.406ZM469.703 256.344V257.344H470.703V256.344H469.703ZM461.031 256.344H460.031V257.344H461.031V256.344ZM466.469 246.125L467.103 246.898L467.105 246.897L466.469 246.125ZM472.844 242.656L473.167 243.603L473.174 243.6L472.844 242.656ZM490.938 243.219L490.531 244.133L490.535 244.134L490.938 243.219ZM497.594 248.891L496.748 249.423L496.751 249.43L496.755 249.436L497.594 248.891ZM500.453 287.328L499.464 287.474L499.465 287.482L499.466 287.49L500.453 287.328ZM501.812 292.25H502.812V292.043L502.731 291.854L501.812 292.25ZM501.812 293V294H502.812V293H501.812ZM492.766 293L491.849 293.401L492.112 294H492.766V293ZM491.734 289.016L490.745 289.162L490.746 289.165L491.734 289.016ZM492.859 262.25L493.859 262.235L493.844 261.25H492.859V262.25ZM492.953 268.344V269.344H493.969L493.953 268.328L492.953 268.344ZM477.578 268.953L477.768 269.935L477.776 269.933L477.783 269.932L477.578 268.953ZM469.703 273.641L470.563 274.152L470.569 274.142L469.703 273.641ZM472.984 285.219L472.507 286.097L472.518 286.104L472.53 286.109L472.984 285.219ZM490.234 280.531L489.434 279.931L489.427 279.941L490.234 280.531ZM492.203 275.797L492.951 275.133L491.352 273.332L491.205 275.736L492.203 275.797ZM495.906 279.969L496.893 280.133L496.971 279.662L496.654 279.305L495.906 279.969ZM490.234 288.922L490.904 289.664L490.905 289.664L490.234 288.922ZM484.516 292.531L484.91 293.45L484.916 293.448L484.516 292.531ZM468.062 291.922L467.598 292.808L467.602 292.81L468.062 291.922ZM462.062 286.531L461.211 287.056L461.215 287.063L461.22 287.07L462.062 286.531ZM461.547 271.719L462.436 272.177L462.439 272.171L461.547 271.719ZM466.141 266.516L466.707 267.34L466.716 267.334L466.141 266.516ZM492.359 284.328V258.219H490.359V284.328H492.359ZM492.359 258.219C492.359 256.082 491.925 254.174 491.016 252.532L489.266 253.5C489.982 254.794 490.359 256.356 490.359 258.219H492.359ZM491.028 252.554C490.144 250.858 488.8 249.557 487.032 248.656L486.124 250.438C487.544 251.162 488.574 252.173 489.254 253.478L491.028 252.554ZM487.032 248.656C485.261 247.753 483.126 247.328 480.672 247.328V249.328C482.905 249.328 484.708 249.716 486.124 250.438L487.032 248.656ZM480.672 247.328C478.371 247.328 476.303 247.723 474.494 248.542L475.319 250.364C476.822 249.683 478.598 249.328 480.672 249.328V247.328ZM474.487 248.545C472.74 249.352 471.321 250.43 470.27 251.797L471.855 253.016C472.679 251.945 473.823 251.054 475.325 250.361L474.487 248.545ZM470.26 251.81C469.236 253.186 468.703 254.705 468.703 256.344H470.703C470.703 255.17 471.076 254.064 471.865 253.003L470.26 251.81ZM469.703 255.344H461.031V257.344H469.703V255.344ZM462.031 256.344C462.031 254.711 462.452 253.073 463.322 251.419L461.553 250.487C460.548 252.396 460.031 254.352 460.031 256.344H462.031ZM463.322 251.419C464.191 249.769 465.444 248.261 467.103 246.898L465.834 245.352C463.994 246.864 462.559 248.574 461.553 250.487L463.322 251.419ZM467.105 246.897C468.782 245.514 470.798 244.412 473.167 243.603L472.52 241.71C469.952 242.588 467.718 243.799 465.833 245.353L467.105 246.897ZM473.174 243.6C475.553 242.768 478.22 242.344 481.188 242.344V240.344C478.03 240.344 475.135 240.795 472.513 241.712L473.174 243.6ZM481.188 242.344C484.762 242.344 487.869 242.949 490.531 244.133L491.344 242.305C488.381 240.988 484.988 240.344 481.188 240.344V242.344ZM490.535 244.134C493.203 245.307 495.264 247.068 496.748 249.423L498.44 248.358C496.736 245.651 494.359 243.63 491.34 242.303L490.535 244.134ZM496.755 249.436C498.25 251.735 499.031 254.673 499.031 258.312H501.031C501.031 254.389 500.188 251.046 498.432 248.346L496.755 249.436ZM499.031 258.312V281.938H501.031V258.312H499.031ZM499.031 281.938C499.031 283.68 499.176 285.526 499.464 287.474L501.442 287.182C501.167 285.318 501.031 283.57 501.031 281.938H499.031ZM499.466 287.49C499.788 289.455 500.26 291.178 500.894 292.646L502.731 291.854C502.177 290.572 501.743 289.014 501.44 287.166L499.466 287.49ZM500.812 292.25V293H502.812V292.25H500.812ZM501.812 292H492.766V294H501.812V292ZM493.682 292.599C493.293 291.71 492.966 290.477 492.723 288.866L490.746 289.165C491.002 290.867 491.363 292.29 491.849 293.401L493.682 292.599ZM492.724 288.869C492.479 287.221 492.359 285.709 492.359 284.328H490.359C490.359 285.823 490.489 287.435 490.745 289.162L492.724 288.869ZM491.859 262.265L491.953 268.359L493.953 268.328L493.859 262.235L491.859 262.265ZM492.953 267.344H484.188V269.344H492.953V267.344ZM484.188 267.344C481.666 267.344 479.392 267.551 477.373 267.974L477.783 269.932C479.639 269.543 481.772 269.344 484.188 269.344V267.344ZM477.388 267.971C475.369 268.362 473.628 268.973 472.192 269.828L473.215 271.547C474.404 270.839 475.913 270.294 477.768 269.935L477.388 267.971ZM472.192 269.828C470.749 270.687 469.62 271.788 468.838 273.14L470.569 274.142C471.161 273.118 472.032 272.251 473.215 271.547L472.192 269.828ZM468.844 273.13C468.05 274.464 467.672 276.006 467.672 277.719H469.672C469.672 276.307 469.981 275.13 470.563 274.152L468.844 273.13ZM467.672 277.719C467.672 279.469 468.068 281.089 468.873 282.558L470.627 281.598C469.994 280.442 469.672 279.156 469.672 277.719H467.672ZM468.873 282.558C469.692 284.055 470.917 285.233 472.507 286.097L473.462 284.34C472.177 283.642 471.245 282.726 470.627 281.598L468.873 282.558ZM472.53 286.109C474.174 286.949 476.136 287.344 478.375 287.344V285.344C476.364 285.344 474.732 284.989 473.439 284.328L472.53 286.109ZM478.375 287.344C481.176 287.344 483.691 286.749 485.891 285.531L484.922 283.781C483.059 284.813 480.886 285.344 478.375 285.344V287.344ZM485.891 285.531C488.03 284.346 489.756 282.88 491.042 281.121L489.427 279.941C488.337 281.432 486.845 282.716 484.922 283.781L485.891 285.531ZM491.034 281.131C492.333 279.4 493.092 277.638 493.201 275.858L491.205 275.736C491.126 277.018 490.573 278.413 489.434 279.931L491.034 281.131ZM491.455 276.461L495.158 280.633L496.654 279.305L492.951 275.133L491.455 276.461ZM494.92 279.804C494.729 280.952 494.198 282.283 493.27 283.809L494.98 284.848C495.99 283.185 496.646 281.611 496.893 280.133L494.92 279.804ZM493.27 283.809C492.36 285.307 491.129 286.765 489.564 288.18L490.905 289.664C492.59 288.141 493.953 286.537 494.98 284.848L493.27 283.809ZM489.565 288.179C488.06 289.536 486.248 290.684 484.115 291.615L484.916 293.448C487.221 292.441 489.221 291.183 490.904 289.664L489.565 288.179ZM484.122 291.612C482.077 292.489 479.745 292.938 477.109 292.938V294.938C479.974 294.938 482.58 294.449 484.91 293.45L484.122 291.612ZM477.109 292.938C473.804 292.938 470.951 292.292 468.523 291.034L467.602 292.81C470.362 294.239 473.54 294.938 477.109 294.938V292.938ZM468.527 291.036C466.105 289.766 464.241 288.084 462.905 285.993L461.22 287.07C462.759 289.478 464.895 291.39 467.598 292.807L468.527 291.036ZM462.914 286.007C461.61 283.891 460.953 281.527 460.953 278.891H458.953C458.953 281.879 459.703 284.609 461.211 287.056L462.914 286.007ZM460.953 278.891C460.953 276.304 461.458 274.075 462.436 272.177L460.658 271.261C459.511 273.487 458.953 276.04 458.953 278.891H460.953ZM462.439 272.171C463.423 270.232 464.84 268.623 466.707 267.34L465.574 265.692C463.441 267.158 461.796 269.018 460.655 271.266L462.439 272.171ZM466.716 267.334C468.6 266.009 470.89 264.991 473.607 264.297L473.112 262.359C470.203 263.103 467.681 264.21 465.565 265.698L466.716 267.334ZM473.607 264.297C476.325 263.602 479.38 263.25 482.781 263.25V261.25C479.245 261.25 476.019 261.616 473.112 262.359L473.607 264.297ZM482.781 263.25H492.859V261.25H482.781V263.25ZM539.144 250.25H540.144V250.235L540.143 250.221L539.144 250.25ZM539.144 293V294H540.144V293H539.144ZM530.472 293H529.472V294H530.472V293ZM530.472 242.281V241.281H529.472V242.281H530.472ZM538.909 242.281L539.909 242.252L539.88 241.281H538.909V242.281ZM554.987 242L555.987 242.006L555.991 241.384L555.435 241.106L554.987 242ZM554.941 250.062L554.728 251.04L555.933 251.302L555.941 250.068L554.941 250.062ZM552.878 249.781L552.779 250.776L552.805 250.779L552.831 250.78L552.878 249.781ZM539.003 257.281L538.075 256.91L538.071 256.92L539.003 257.281ZM537.831 262.344L538.331 263.21L538.774 262.954L538.826 262.445L537.831 262.344ZM535.394 263.75H534.394V265.481L535.893 264.616L535.394 263.75ZM536.284 255.125L535.31 254.898L535.308 254.909L536.284 255.125ZM539.144 248L539.993 248.528L539.997 248.522L539.144 248ZM544.019 243.125L544.525 243.987L544.529 243.985L544.019 243.125ZM553.3 241.578L553.111 242.56L553.129 242.564L553.148 242.566L553.3 241.578ZM538.144 250.25V293H540.144V250.25H538.144ZM539.144 292H530.472V294H539.144V292ZM531.472 293V242.281H529.472V293H531.472ZM530.472 243.281H538.909V241.281H530.472V243.281ZM537.91 242.311L538.144 250.279L540.143 250.221L539.909 242.252L537.91 242.311ZM553.988 241.994L553.941 250.057L555.941 250.068L555.987 242.006L553.988 241.994ZM555.153 249.085C554.386 248.919 553.644 248.817 552.926 248.782L552.831 250.78C553.425 250.808 554.057 250.894 554.728 251.04L555.153 249.085ZM552.978 248.786C552.312 248.72 551.559 248.688 550.722 248.688V250.688C551.51 250.688 552.195 250.718 552.779 250.776L552.978 248.786ZM550.722 248.688C548.619 248.688 546.721 249.016 545.047 249.699L545.803 251.551C547.192 250.984 548.825 250.688 550.722 250.688V248.688ZM545.047 249.699C543.393 250.374 541.974 251.328 540.807 252.563L542.261 253.937C543.219 252.922 544.394 252.126 545.803 251.551L545.047 249.699ZM540.807 252.563C539.651 253.788 538.742 255.241 538.075 256.91L539.932 257.653C540.514 256.197 541.293 254.962 542.261 253.937L540.807 252.563ZM538.071 256.92C537.441 258.544 537.032 260.321 536.836 262.243L538.826 262.445C539.006 260.679 539.378 259.081 539.935 257.643L538.071 256.92ZM537.332 261.478L534.894 262.884L535.893 264.616L538.331 263.21L537.332 261.478ZM536.394 263.75C536.394 260.752 536.684 257.95 537.261 255.341L535.308 254.909C534.697 257.675 534.394 260.623 534.394 263.75H536.394ZM537.258 255.352C537.862 252.756 538.777 250.486 539.993 248.528L538.294 247.472C536.948 249.639 535.957 252.119 535.31 254.898L537.258 255.352ZM539.997 248.522C541.199 246.558 542.709 245.054 544.525 243.987L543.512 242.263C541.391 243.508 539.651 245.255 538.291 247.478L539.997 248.522ZM544.529 243.985C546.349 242.905 548.54 242.344 551.144 242.344V240.344C548.247 240.344 545.689 240.97 543.508 242.265L544.529 243.985ZM551.144 242.344C551.689 242.344 552.342 242.412 553.111 242.56L553.489 240.596C552.633 240.431 551.849 240.344 551.144 240.344V242.344ZM553.148 242.566C553.959 242.691 554.382 242.815 554.54 242.894L555.435 241.106C554.968 240.872 554.266 240.715 553.452 240.59L553.148 242.566ZM588.522 221H589.522V220H588.522V221ZM588.522 293V294H589.522V293H588.522ZM579.803 293H578.803V294H579.803V293ZM579.803 221V220H578.803V221H579.803ZM619.506 242.281L620.237 242.964L621.81 241.281H619.506V242.281ZM597.381 265.953L598.101 266.647L598.107 266.642L598.112 266.636L597.381 265.953ZM585.006 278.797L584.009 278.873L584.179 281.097L585.726 279.491L585.006 278.797ZM584.303 269.562L583.536 268.921L583.275 269.233L583.306 269.638L584.303 269.562ZM593.163 258.969L592.435 258.282L592.415 258.304L592.395 258.327L593.163 258.969ZM608.913 242.281V241.281H608.481L608.185 241.595L608.913 242.281ZM611.584 293L610.784 293.599L611.084 294H611.584V293ZM593.491 268.812L592.626 268.31L592.293 268.882L592.69 269.412L593.491 268.812ZM597.991 261.078L598.792 260.48L597.887 259.267L597.126 260.575L597.991 261.078ZM621.803 293V294H623.797L622.605 292.402L621.803 293ZM587.522 221V293H589.522V221H587.522ZM588.522 292H579.803V294H588.522V292ZM580.803 293V221H578.803V293H580.803ZM579.803 222H588.522V220H579.803V222ZM618.776 241.598L596.651 265.27L598.112 266.636L620.237 242.964L618.776 241.598ZM596.661 265.259L584.286 278.103L585.726 279.491L598.101 266.647L596.661 265.259ZM586.003 278.721L585.3 269.487L583.306 269.638L584.009 278.873L586.003 278.721ZM585.07 270.204L593.93 259.61L592.395 258.327L583.536 268.921L585.07 270.204ZM593.89 259.655L609.64 242.968L608.185 241.595L592.435 258.282L593.89 259.655ZM608.913 243.281H619.506V241.281H608.913V243.281ZM612.385 292.401L594.291 268.213L592.69 269.412L610.784 293.599L612.385 292.401ZM594.355 269.315L598.855 261.581L597.126 260.575L592.626 268.31L594.355 269.315ZM597.189 261.676L621.002 293.598L622.605 292.402L598.792 260.48L597.189 261.676ZM621.803 292H611.584V294H621.803V292ZM655.759 292.156L655.365 293.075L655.378 293.081L655.759 292.156ZM648.4 287.047L647.667 287.727L647.672 287.733L648.4 287.047ZM643.9 256.438L644.835 256.792L644.836 256.789L643.9 256.438ZM673.619 243.219L673.189 244.122L673.193 244.124L673.619 243.219ZM680.134 248.469L679.334 249.069L679.338 249.074L680.134 248.469ZM683.884 256.344L682.918 256.603L682.919 256.605L683.884 256.344ZM685.103 270.078V271.078H686.103V270.078H685.103ZM647.228 270.078H646.228V271.078H647.228V270.078ZM647.228 263V262H646.228V263H647.228ZM676.431 263V264H677.431V263H676.431ZM676.431 262.344H677.431V262.316L677.43 262.288L676.431 262.344ZM675.025 255.781L674.086 256.126L674.091 256.138L675.025 255.781ZM658.806 249.734L659.247 250.632L659.253 250.629L659.26 250.625L658.806 249.734ZM651.775 276.219L650.82 276.514L650.822 276.522L650.825 276.531L651.775 276.219ZM654.728 281.75L653.949 282.377L653.956 282.386L654.728 281.75ZM659.462 285.5L659.021 286.397L659.027 286.4L659.462 285.5ZM679.197 279.969L679.819 279.186L679.02 278.551L678.401 279.363L679.197 279.969ZM684.447 284.141L685.281 284.692L685.786 283.927L685.069 283.358L684.447 284.141ZM674.041 292.531L673.686 291.596L673.682 291.598L674.041 292.531ZM665.369 292.938C661.951 292.938 658.88 292.363 656.141 291.232L655.378 293.081C658.389 294.324 661.724 294.938 665.369 294.938V292.938ZM656.153 291.237C653.432 290.071 651.093 288.446 649.128 286.361L647.672 287.733C649.832 290.023 652.399 291.804 655.365 293.075L656.153 291.237ZM649.133 286.366C647.198 284.283 645.703 281.807 644.652 278.923L642.773 279.608C643.909 282.725 645.539 285.435 647.667 287.727L649.133 286.366ZM644.652 278.923C643.603 276.045 643.072 272.881 643.072 269.422H641.072C641.072 273.088 641.635 276.486 642.773 279.608L644.652 278.923ZM643.072 269.422V267.453H641.072V269.422H643.072ZM643.072 267.453C643.072 263.426 643.667 259.877 644.835 256.792L642.965 256.083C641.696 259.435 641.072 263.231 641.072 267.453H643.072ZM644.836 256.789C646.015 253.645 647.607 251.011 649.601 248.869L648.137 247.506C645.943 249.864 644.222 252.73 642.964 256.086L644.836 256.789ZM649.601 248.869C651.607 246.713 653.87 245.093 656.393 243.995L655.595 242.161C652.805 243.376 650.318 245.162 648.137 247.506L649.601 248.869ZM656.393 243.995C658.926 242.893 661.54 242.344 664.244 242.344V240.344C661.26 240.344 658.374 240.951 655.595 242.161L656.393 243.995ZM664.244 242.344C667.756 242.344 670.727 242.949 673.189 244.122L674.049 242.316C671.26 240.988 667.982 240.344 664.244 240.344V242.344ZM673.193 244.124C675.708 245.307 677.749 246.955 679.334 249.069L680.934 247.869C679.145 245.482 676.842 243.63 674.045 242.314L673.193 244.124ZM679.338 249.074C680.938 251.177 682.135 253.681 682.918 256.603L684.85 256.085C684.008 252.944 682.706 250.198 680.93 247.863L679.338 249.074ZM682.919 256.605C683.705 259.509 684.103 262.701 684.103 266.188H686.103C686.103 262.549 685.688 259.179 684.85 256.082L682.919 256.605ZM684.103 266.188V270.078H686.103V266.188H684.103ZM685.103 269.078H647.228V271.078H685.103V269.078ZM648.228 270.078V263H646.228V270.078H648.228ZM647.228 264H676.431V262H647.228V264ZM677.431 263V262.344H675.431V263H677.431ZM677.43 262.288C677.299 259.934 676.808 257.645 675.959 255.424L674.091 256.138C674.867 258.168 675.314 260.254 675.433 262.399L677.43 262.288ZM675.964 255.436C675.121 253.145 673.765 251.243 671.9 249.75L670.65 251.312C672.222 252.57 673.366 254.167 674.086 256.126L675.964 255.436ZM671.9 249.75C669.95 248.191 667.361 247.469 664.244 247.469V249.469C667.064 249.469 669.162 250.121 670.65 251.312L671.9 249.75ZM664.244 247.469C662.127 247.469 660.157 247.924 658.352 248.843L659.26 250.625C660.768 249.858 662.423 249.469 664.244 249.469V247.469ZM658.366 248.837C656.551 249.727 655.007 251.057 653.733 252.801L655.348 253.981C656.449 252.474 657.749 251.367 659.247 250.632L658.366 248.837ZM653.733 252.801C652.462 254.54 651.494 256.639 650.812 259.074L652.738 259.613C653.368 257.361 654.244 255.491 655.348 253.981L653.733 252.801ZM650.812 259.074C650.126 261.525 649.791 264.322 649.791 267.453H651.791C651.791 264.459 652.112 261.85 652.738 259.613L650.812 259.074ZM649.791 267.453V269.422H651.791V267.453H649.791ZM649.791 269.422C649.791 271.92 650.131 274.286 650.82 276.514L652.73 275.924C652.106 273.902 651.791 271.736 651.791 269.422H649.791ZM650.825 276.531C651.547 278.73 652.586 280.682 653.949 282.377L655.507 281.123C654.307 279.63 653.378 277.895 652.725 275.907L650.825 276.531ZM653.956 282.386C655.359 284.089 657.049 285.428 659.021 286.397L659.904 284.603C658.188 283.759 656.723 282.599 655.5 281.114L653.956 282.386ZM659.027 286.4C661.056 287.381 663.333 287.859 665.837 287.859V285.859C663.592 285.859 661.619 285.432 659.898 284.6L659.027 286.4ZM665.837 287.859C669.035 287.859 671.814 287.206 674.126 285.846L673.112 284.122C671.174 285.263 668.765 285.859 665.837 285.859V287.859ZM674.126 285.846C676.37 284.526 678.326 282.765 679.993 280.574L678.401 279.363C676.881 281.36 675.117 282.943 673.112 284.122L674.126 285.846ZM678.575 280.752L683.825 284.924L685.069 283.358L679.819 279.186L678.575 280.752ZM683.612 283.59C682.573 285.164 681.242 286.678 679.611 288.128L680.939 289.622C682.683 288.072 684.134 286.43 685.281 284.692L683.612 283.59ZM679.611 288.128C678.028 289.534 676.06 290.695 673.686 291.596L674.396 293.466C676.959 292.493 679.147 291.216 680.939 289.622L679.611 288.128ZM673.682 291.598C671.386 292.481 668.623 292.938 665.369 292.938V294.938C668.802 294.938 671.82 294.457 674.4 293.465L673.682 291.598ZM733.263 242.281H734.263V241.281H733.263V242.281ZM733.263 248.938V249.938H734.263V248.938H733.263ZM705.841 248.938H704.841V249.938H705.841V248.938ZM705.841 242.281V241.281H704.841V242.281H705.841ZM715.122 229.953V228.953H714.122V229.953H715.122ZM723.794 229.953H724.794V228.953H723.794V229.953ZM731.622 286.297L731.78 287.284L731.795 287.282L731.811 287.279L731.622 286.297ZM733.45 285.922L734.45 285.915L734.442 284.667L733.225 284.947L733.45 285.922ZM733.497 293L733.8 293.953L734.502 293.73L734.497 292.993L733.497 293ZM730.778 293.609L730.614 292.623L730.598 292.626L730.582 292.629L730.778 293.609ZM716.669 288.453L715.78 288.911L715.784 288.92L715.789 288.928L716.669 288.453ZM732.263 242.281V248.938H734.263V242.281H732.263ZM733.263 247.938H705.841V249.938H733.263V247.938ZM706.841 248.938V242.281H704.841V248.938H706.841ZM705.841 243.281H733.263V241.281H705.841V243.281ZM715.122 230.953H723.794V228.953H715.122V230.953ZM722.794 229.953V280.438H724.794V229.953H722.794ZM722.794 280.438C722.794 282.229 723.065 283.743 723.736 284.847L725.445 283.809C725.054 283.164 724.794 282.084 724.794 280.438H722.794ZM723.736 284.847C724.37 285.892 725.235 286.644 726.337 287.011L726.969 285.114C726.384 284.919 725.873 284.514 725.445 283.809L723.736 284.847ZM726.337 287.011C727.291 287.329 728.305 287.484 729.372 287.484V285.484C728.501 285.484 727.702 285.358 726.969 285.114L726.337 287.011ZM729.372 287.484C730.149 287.484 730.952 287.417 731.78 287.284L731.464 285.309C730.73 285.427 730.033 285.484 729.372 285.484V287.484ZM731.811 287.279C732.626 287.122 733.25 286.994 733.675 286.896L733.225 284.947C732.837 285.037 732.243 285.159 731.433 285.315L731.811 287.279ZM732.45 285.928L732.497 293.007L734.497 292.993L734.45 285.915L732.45 285.928ZM733.194 292.047C732.57 292.246 731.715 292.439 730.614 292.623L730.943 294.596C732.091 294.404 733.049 294.192 733.8 293.953L733.194 292.047ZM730.582 292.629C729.573 292.831 728.314 292.938 726.794 292.938V294.938C728.398 294.938 729.796 294.826 730.974 294.59L730.582 292.629ZM726.794 292.938C724.805 292.938 723 292.544 721.362 291.768L720.506 293.576C722.432 294.488 724.532 294.938 726.794 294.938V292.938ZM721.362 291.768C719.799 291.028 718.524 289.786 717.549 287.978L715.789 288.928C716.938 291.058 718.507 292.629 720.506 293.576L721.362 291.768ZM717.558 287.995C716.627 286.19 716.122 283.679 716.122 280.391H714.122C714.122 283.852 714.648 286.717 715.78 288.911L717.558 287.995ZM716.122 280.391V229.953H714.122V280.391H716.122ZM768.906 252.031H769.906V251.993L769.903 251.955L768.906 252.031ZM768.906 312.5V313.5H769.906V312.5H768.906ZM760.188 312.5H759.188V313.5H760.188V312.5ZM760.188 242.281V241.281H759.188V242.281H760.188ZM768.156 242.281L769.153 242.205L769.082 241.281H768.156V242.281ZM801.766 278.469L802.729 278.738L802.729 278.736L801.766 278.469ZM797.922 286.625L797.114 286.036L797.109 286.043L797.922 286.625ZM764.453 280.391L763.51 280.722L763.513 280.732L764.453 280.391ZM762.391 270.781H761.391V270.834L761.396 270.886L762.391 270.781ZM762.391 265.531L761.396 265.432L761.391 265.481V265.531H762.391ZM768.578 247.859L767.801 247.231L767.8 247.232L768.578 247.859ZM774.812 243.031L775.222 243.944L775.232 243.939L774.812 243.031ZM791.734 243.219L791.283 244.111L791.292 244.115L791.734 243.219ZM801.766 256.672L800.799 256.928L800.802 256.939L801.766 256.672ZM793.562 260.094L792.589 260.324L792.59 260.327L793.562 260.094ZM791.078 254.188L790.234 254.724L790.24 254.733L790.246 254.742L791.078 254.188ZM786.859 250.156L786.356 251.021L786.368 251.027L786.859 250.156ZM775 249.781L774.581 248.873L774.574 248.876L775 249.781ZM770.922 252.828L771.665 253.497L771.673 253.488L770.922 252.828ZM768.156 257.141L767.242 256.736L767.238 256.745L768.156 257.141ZM766.609 262.109L765.629 261.913L765.609 262.01V262.109H766.609ZM766.609 274.25H765.609V274.39L765.648 274.525L766.609 274.25ZM769.234 280.438L768.37 280.94L768.373 280.946L769.234 280.438ZM773.734 285.078L773.199 285.923L773.209 285.929L773.734 285.078ZM786.859 285.359L787.357 286.227L787.362 286.224L786.859 285.359ZM791.078 281.281L790.241 280.734L790.234 280.744L791.078 281.281ZM793.562 275.375L794.535 275.608L794.536 275.605L793.562 275.375ZM767.906 252.031V312.5H769.906V252.031H767.906ZM768.906 311.5H760.188V313.5H768.906V311.5ZM761.188 312.5V242.281H759.188V312.5H761.188ZM760.188 243.281H768.156V241.281H760.188V243.281ZM767.159 242.358L767.909 252.108L769.903 251.955L769.153 242.205L767.159 242.358ZM802.078 267.219V268.203H804.078V267.219H802.078ZM802.078 268.203C802.078 271.812 801.65 275.142 800.802 278.202L802.729 278.736C803.631 275.483 804.078 271.97 804.078 268.203H802.078ZM800.803 278.199C799.956 281.224 798.722 283.832 797.114 286.036L798.73 287.214C800.496 284.793 801.826 281.963 802.729 278.738L800.803 278.199ZM797.109 286.043C795.54 288.233 793.611 289.924 791.316 291.13L792.247 292.901C794.827 291.545 796.991 289.642 798.735 287.207L797.109 286.043ZM791.316 291.13C789.042 292.326 786.409 292.938 783.391 292.938V294.938C786.685 294.938 789.646 294.268 792.247 292.901L791.316 291.13ZM783.391 292.938C780.281 292.938 777.576 292.424 775.255 291.425L774.464 293.262C777.08 294.388 780.062 294.938 783.391 294.938V292.938ZM775.255 291.425C772.927 290.423 770.959 288.969 769.342 287.057L767.815 288.349C769.634 290.5 771.855 292.139 774.464 293.262L775.255 291.425ZM769.342 287.057C767.709 285.128 766.39 282.797 765.393 280.05L763.513 280.732C764.579 283.672 766.01 286.216 767.815 288.349L769.342 287.057ZM765.396 280.059C764.427 277.301 763.753 274.176 763.385 270.677L761.396 270.886C761.778 274.512 762.48 277.793 763.51 280.722L765.396 280.059ZM763.391 270.781V265.531H761.391V270.781H763.391ZM763.386 265.631C763.754 261.944 764.444 258.663 765.445 255.781L763.555 255.125C762.494 258.181 761.777 261.619 761.396 265.432L763.386 265.631ZM765.445 255.781C766.444 252.903 767.752 250.477 769.357 248.487L767.8 247.232C766.029 249.429 764.618 252.066 763.555 255.125L765.445 255.781ZM769.356 248.488C770.978 246.482 772.931 244.972 775.222 243.944L774.403 242.119C771.819 243.278 769.616 244.986 767.801 247.231L769.356 248.488ZM775.232 243.939C777.515 242.885 780.18 242.344 783.25 242.344V240.344C779.945 240.344 776.985 240.927 774.393 242.123L775.232 243.939ZM783.25 242.344C786.304 242.344 788.974 242.942 791.283 244.111L792.186 242.327C789.557 240.996 786.571 240.344 783.25 240.344V242.344ZM791.292 244.115C793.613 245.262 795.569 246.906 797.165 249.063L798.773 247.874C796.994 245.469 794.793 243.613 792.177 242.322L791.292 244.115ZM797.165 249.063C798.766 251.228 799.982 253.843 800.799 256.928L802.732 256.416C801.861 253.126 800.547 250.272 798.773 247.874L797.165 249.063ZM800.802 256.939C801.649 259.994 802.078 263.418 802.078 267.219H804.078C804.078 263.269 803.632 259.662 802.729 256.405L800.802 256.939ZM795.359 268.203V267.219H793.359V268.203H795.359ZM795.359 267.219C795.359 264.618 795.086 262.164 794.535 259.861L792.59 260.327C793.101 262.461 793.359 264.757 793.359 267.219H795.359ZM794.536 259.864C793.981 257.514 793.11 255.432 791.91 253.633L790.246 254.742C791.296 256.318 792.082 258.173 792.589 260.324L794.536 259.864ZM791.922 253.651C790.743 251.798 789.217 250.337 787.35 249.285L786.368 251.027C787.939 251.913 789.226 253.14 790.234 254.724L791.922 253.651ZM787.362 249.292C785.464 248.187 783.236 247.656 780.719 247.656V249.656C782.952 249.656 784.818 250.125 786.356 251.021L787.362 249.292ZM780.719 247.656C778.418 247.656 776.363 248.051 774.581 248.873L775.419 250.689C776.887 250.012 778.644 249.656 780.719 249.656V247.656ZM774.574 248.876C772.86 249.683 771.389 250.78 770.17 252.168L771.673 253.488C772.705 252.313 773.952 251.38 775.426 250.686L774.574 248.876ZM770.179 252.159C768.979 253.492 768.001 255.02 767.242 256.736L769.071 257.545C769.749 256.011 770.615 254.664 771.665 253.497L770.179 252.159ZM767.238 256.745C766.523 258.403 765.986 260.127 765.629 261.913L767.59 262.305C767.92 260.655 768.415 259.066 769.074 257.537L767.238 256.745ZM765.609 262.109V274.25H767.609V262.109H765.609ZM765.648 274.525C766.295 276.79 767.202 278.93 768.37 280.94L770.099 279.935C769.016 278.07 768.174 276.085 767.571 273.975L765.648 274.525ZM768.373 280.946C769.579 282.989 771.191 284.651 773.199 285.923L774.269 284.233C772.528 283.13 771.14 281.699 770.096 279.929L768.373 280.946ZM773.209 285.929C775.282 287.207 777.836 287.812 780.812 287.812V285.812C778.101 285.812 775.937 285.261 774.259 284.227L773.209 285.929ZM780.812 287.812C783.295 287.812 785.49 287.299 787.357 286.227L786.362 284.492C784.854 285.358 783.017 285.812 780.812 285.812V287.812ZM787.362 286.224C789.223 285.141 790.744 283.668 791.922 281.818L790.234 280.744C789.224 282.332 787.934 283.577 786.356 284.495L787.362 286.224ZM791.915 281.829C793.109 280.004 793.98 277.926 794.535 275.608L792.59 275.142C792.083 277.261 791.297 279.121 790.241 280.734L791.915 281.829ZM794.536 275.605C795.086 273.273 795.359 270.805 795.359 268.203H793.359C793.359 270.664 793.101 272.977 792.589 275.145L794.536 275.605ZM840.362 221H841.362V220H840.362V221ZM840.362 293V294H841.362V293H840.362ZM831.644 293H830.644V294H831.644V293ZM831.644 221V220H830.644V221H831.644ZM839.362 221V293H841.362V221H839.362ZM840.362 292H831.644V294H840.362V292ZM832.644 293V221H830.644V293H832.644ZM831.644 222H840.362V220H831.644V222ZM899.772 253.016L898.885 253.478L898.891 253.489L898.897 253.5L899.772 253.016ZM884.537 249.453L884.125 248.542L884.118 248.545L884.537 249.453ZM880.694 252.406L879.901 251.797L879.896 251.803L879.891 251.81L880.694 252.406ZM879.334 256.344V257.344H880.334V256.344H879.334ZM870.662 256.344H869.662V257.344H870.662V256.344ZM876.1 246.125L876.735 246.898L876.736 246.897L876.1 246.125ZM882.475 242.656L882.798 243.603L882.805 243.6L882.475 242.656ZM900.569 243.219L900.163 244.133L900.166 244.134L900.569 243.219ZM907.225 248.891L906.379 249.423L906.383 249.43L906.387 249.436L907.225 248.891ZM910.084 287.328L909.095 287.474L909.096 287.482L909.098 287.49L910.084 287.328ZM911.444 292.25H912.444V292.043L912.362 291.854L911.444 292.25ZM911.444 293V294H912.444V293H911.444ZM902.397 293L901.481 293.401L901.743 294H902.397V293ZM901.366 289.016L900.376 289.162L900.377 289.165L901.366 289.016ZM902.491 262.25L903.49 262.235L903.475 261.25H902.491V262.25ZM902.584 268.344V269.344H903.6L903.584 268.328L902.584 268.344ZM887.209 268.953L887.399 269.935L887.407 269.933L887.415 269.932L887.209 268.953ZM879.334 273.641L880.194 274.152L880.2 274.142L879.334 273.641ZM882.616 285.219L882.138 286.097L882.149 286.104L882.161 286.109L882.616 285.219ZM899.866 280.531L899.066 279.931L899.058 279.941L899.866 280.531ZM901.834 275.797L902.582 275.133L900.983 273.332L900.836 275.736L901.834 275.797ZM905.537 279.969L906.524 280.133L906.602 279.662L906.285 279.305L905.537 279.969ZM899.866 288.922L900.535 289.664L900.536 289.664L899.866 288.922ZM894.147 292.531L894.541 293.45L894.547 293.448L894.147 292.531ZM877.694 291.922L877.229 292.808L877.234 292.81L877.694 291.922ZM871.694 286.531L870.842 287.056L870.847 287.063L870.851 287.07L871.694 286.531ZM871.178 271.719L872.067 272.177L872.07 272.171L871.178 271.719ZM875.772 266.516L876.338 267.34L876.347 267.334L875.772 266.516ZM901.991 284.328V258.219H899.991V284.328H901.991ZM901.991 258.219C901.991 256.082 901.556 254.174 900.647 252.532L898.897 253.5C899.613 254.794 899.991 256.356 899.991 258.219H901.991ZM900.659 252.554C899.776 250.858 898.431 249.557 896.664 248.656L895.755 250.438C897.175 251.162 898.206 252.173 898.885 253.478L900.659 252.554ZM896.664 248.656C894.892 247.753 892.758 247.328 890.303 247.328V249.328C892.536 249.328 894.339 249.716 895.755 250.438L896.664 248.656ZM890.303 247.328C888.002 247.328 885.934 247.723 884.125 248.542L884.95 250.364C886.453 249.683 888.229 249.328 890.303 249.328V247.328ZM884.118 248.545C882.371 249.352 880.952 250.43 879.901 251.797L881.486 253.016C882.31 251.945 883.454 251.054 884.957 250.361L884.118 248.545ZM879.891 251.81C878.868 253.186 878.334 254.705 878.334 256.344H880.334C880.334 255.17 880.707 254.064 881.496 253.003L879.891 251.81ZM879.334 255.344H870.662V257.344H879.334V255.344ZM871.662 256.344C871.662 254.711 872.083 253.073 872.954 251.419L871.184 250.487C870.179 252.396 869.662 254.352 869.662 256.344H871.662ZM872.954 251.419C873.822 249.769 875.075 248.261 876.735 246.898L875.465 245.352C873.625 246.864 872.191 248.574 871.184 250.487L872.954 251.419ZM876.736 246.897C878.413 245.514 880.429 244.412 882.798 243.603L882.152 241.71C879.584 242.588 877.349 243.799 875.464 245.353L876.736 246.897ZM882.805 243.6C885.184 242.768 887.851 242.344 890.819 242.344V240.344C887.661 240.344 884.766 240.795 882.145 241.712L882.805 243.6ZM890.819 242.344C894.394 242.344 897.501 242.949 900.163 244.133L900.975 242.305C898.012 240.988 894.619 240.344 890.819 240.344V242.344ZM900.166 244.134C902.835 245.307 904.896 247.068 906.379 249.423L908.071 248.358C906.367 245.651 903.99 243.63 900.971 242.303L900.166 244.134ZM906.387 249.436C907.881 251.735 908.662 254.673 908.662 258.312H910.662C910.662 254.389 909.819 251.046 908.063 248.346L906.387 249.436ZM908.662 258.312V281.938H910.662V258.312H908.662ZM908.662 281.938C908.662 283.68 908.808 285.526 909.095 287.474L911.074 287.182C910.799 285.318 910.662 283.57 910.662 281.938H908.662ZM909.098 287.49C909.42 289.455 909.892 291.178 910.526 292.646L912.362 291.854C911.808 290.572 911.374 289.014 911.071 287.166L909.098 287.49ZM910.444 292.25V293H912.444V292.25H910.444ZM911.444 292H902.397V294H911.444V292ZM903.313 292.599C902.924 291.71 902.597 290.477 902.354 288.866L900.377 289.165C900.634 290.867 900.995 292.29 901.481 293.401L903.313 292.599ZM902.355 288.869C902.111 287.221 901.991 285.709 901.991 284.328H899.991C899.991 285.823 900.12 287.435 900.376 289.162L902.355 288.869ZM901.491 262.265L901.584 268.359L903.584 268.328L903.49 262.235L901.491 262.265ZM902.584 267.344H893.819V269.344H902.584V267.344ZM893.819 267.344C891.297 267.344 889.023 267.551 887.004 267.974L887.415 269.932C889.27 269.543 891.403 269.344 893.819 269.344V267.344ZM887.019 267.971C885 268.362 883.259 268.973 881.823 269.828L882.846 271.547C884.035 270.839 885.544 270.294 887.399 269.935L887.019 267.971ZM881.823 269.828C880.381 270.687 879.251 271.788 878.469 273.14L880.2 274.142C880.792 273.118 881.663 272.251 882.846 271.547L881.823 269.828ZM878.475 273.13C877.681 274.464 877.303 276.006 877.303 277.719H879.303C879.303 276.307 879.612 275.13 880.194 274.152L878.475 273.13ZM877.303 277.719C877.303 279.469 877.699 281.089 878.504 282.558L880.258 281.598C879.625 280.442 879.303 279.156 879.303 277.719H877.303ZM878.504 282.558C879.324 284.055 880.548 285.233 882.138 286.097L883.093 284.34C881.808 283.642 880.876 282.726 880.258 281.598L878.504 282.558ZM882.161 286.109C883.805 286.949 885.767 287.344 888.006 287.344V285.344C885.995 285.344 884.364 284.989 883.07 284.328L882.161 286.109ZM888.006 287.344C890.807 287.344 893.322 286.749 895.522 285.531L894.553 283.781C892.69 284.813 890.518 285.344 888.006 285.344V287.344ZM895.522 285.531C897.661 284.346 899.388 282.88 900.673 281.121L899.058 279.941C897.969 281.432 896.477 282.716 894.553 283.781L895.522 285.531ZM900.666 281.131C901.964 279.4 902.723 277.638 902.832 275.858L900.836 275.736C900.758 277.018 900.204 278.413 899.066 279.931L900.666 281.131ZM901.086 276.461L904.79 280.633L906.285 279.305L902.582 275.133L901.086 276.461ZM904.551 279.804C904.36 280.952 903.829 282.283 902.902 283.809L904.611 284.848C905.621 283.185 906.278 281.611 906.524 280.133L904.551 279.804ZM902.902 283.809C901.991 285.307 900.76 286.765 899.195 288.18L900.536 289.664C902.221 288.141 903.584 286.537 904.611 284.848L902.902 283.809ZM899.196 288.179C897.692 289.536 895.879 290.684 893.747 291.615L894.547 293.448C896.852 292.441 898.852 291.183 900.535 289.664L899.196 288.179ZM893.753 291.612C891.708 292.489 889.376 292.938 886.741 292.938V294.938C889.605 294.938 892.211 294.449 894.541 293.45L893.753 291.612ZM886.741 292.938C883.435 292.938 880.582 292.292 878.154 291.034L877.234 292.81C879.993 294.239 883.171 294.938 886.741 294.938V292.938ZM878.158 291.036C875.737 289.766 873.872 288.084 872.536 285.993L870.851 287.07C872.39 289.478 874.526 291.39 877.229 292.807L878.158 291.036ZM872.545 286.007C871.241 283.891 870.584 281.527 870.584 278.891H868.584C868.584 281.879 869.334 284.609 870.842 287.056L872.545 286.007ZM870.584 278.891C870.584 276.304 871.089 274.075 872.067 272.177L870.289 271.261C869.142 273.487 868.584 276.04 868.584 278.891H870.584ZM872.07 272.171C873.054 270.232 874.471 268.623 876.338 267.34L875.205 265.692C873.072 267.158 871.427 269.018 870.286 271.266L872.07 272.171ZM876.347 267.334C878.231 266.009 880.522 264.991 883.238 264.297L882.743 262.359C879.835 263.103 877.312 264.21 875.197 265.698L876.347 267.334ZM883.238 264.297C885.956 263.602 889.012 263.25 892.412 263.25V261.25C888.876 261.25 885.65 261.616 882.743 262.359L883.238 264.297ZM892.412 263.25H902.491V261.25H892.412V263.25ZM970.431 282.078L971.225 282.686L971.231 282.678L970.431 282.078ZM972.353 276.969V275.969H971.432L971.356 276.887L972.353 276.969ZM980.603 276.969L981.602 277.021L981.657 275.969H980.603V276.969ZM977.556 285.359L976.746 284.774L976.744 284.775L977.556 285.359ZM970.291 291.594L970.753 292.481L970.76 292.477L970.291 291.594ZM950.416 291.922L949.984 292.824L949.988 292.826L950.416 291.922ZM943.384 286.391L942.598 287.009L942.603 287.015L943.384 286.391ZM939.212 278.328L938.253 278.612L938.257 278.624L939.212 278.328ZM939.212 257L938.256 256.707L938.254 256.714L939.212 257ZM943.384 248.891L942.603 248.266L942.598 248.272L943.384 248.891ZM950.416 243.359L949.988 242.455L949.984 242.457L950.416 243.359ZM970.806 243.781L970.326 244.658L970.333 244.662L970.806 243.781ZM977.791 250.344L976.936 250.863L976.943 250.874L977.791 250.344ZM980.603 259.719V260.719H981.649L981.602 259.674L980.603 259.719ZM972.353 259.719L971.356 259.793L971.425 260.719H972.353V259.719ZM970.572 254.047L969.711 254.557L969.719 254.568L970.572 254.047ZM966.447 250.016L965.932 250.873L965.941 250.879L965.951 250.884L966.447 250.016ZM953.697 250.062L954.198 250.928L954.203 250.925L953.697 250.062ZM949.431 254.281L948.572 253.769L948.57 253.774L949.431 254.281ZM947.181 260.141L946.204 259.928L946.202 259.939L947.181 260.141ZM949.384 281.047L948.523 281.555L948.53 281.566L949.384 281.047ZM953.65 285.266L953.138 286.124L953.147 286.13L953.155 286.135L953.65 285.266ZM960.4 287.812C962.603 287.812 964.659 287.361 966.553 286.448L965.684 284.646C964.078 285.421 962.322 285.812 960.4 285.812V287.812ZM966.553 286.448C968.437 285.539 970 284.286 971.225 282.686L969.637 281.47C968.612 282.808 967.301 283.867 965.684 284.646L966.553 286.448ZM971.231 282.678C972.472 281.024 973.178 279.141 973.35 277.05L971.356 276.887C971.215 278.609 970.641 280.132 969.631 281.478L971.231 282.678ZM972.353 277.969H980.603V275.969H972.353V277.969ZM979.604 276.917C979.459 279.712 978.516 282.325 976.746 284.774L978.367 285.945C980.347 283.206 981.435 280.226 981.602 277.021L979.604 276.917ZM976.744 284.775C974.997 287.204 972.696 289.183 969.821 290.711L970.76 292.477C973.885 290.817 976.428 288.64 978.368 285.943L976.744 284.775ZM969.829 290.707C966.98 292.19 963.843 292.938 960.4 292.938V294.938C964.144 294.938 967.601 294.122 970.753 292.481L969.829 290.707ZM960.4 292.938C956.704 292.938 953.528 292.286 950.843 291.018L949.988 292.826C952.991 294.245 956.471 294.938 960.4 294.938V292.938ZM950.847 291.02C948.165 289.738 945.942 287.987 944.165 285.766L942.603 287.015C944.576 289.481 947.041 291.418 949.984 292.824L950.847 291.02ZM944.17 285.772C942.407 283.531 941.071 280.954 940.168 278.033L938.257 278.624C939.228 281.764 940.674 284.563 942.598 287.009L944.17 285.772ZM940.171 278.044C939.294 275.08 938.853 271.942 938.853 268.625H936.853C936.853 272.121 937.318 275.451 938.254 278.612L940.171 278.044ZM938.853 268.625V266.656H936.853V268.625H938.853ZM938.853 266.656C938.853 263.34 939.294 260.218 940.171 257.286L938.254 256.714C937.318 259.845 936.853 263.16 936.853 266.656H938.853ZM940.169 257.293C941.073 254.34 942.408 251.749 944.17 249.509L942.598 248.272C940.673 250.72 939.227 253.535 938.256 256.707L940.169 257.293ZM944.165 249.515C945.942 247.294 948.165 245.543 950.847 244.262L949.984 242.457C947.041 243.863 944.576 245.8 942.603 248.266L944.165 249.515ZM950.843 244.264C953.528 242.995 956.704 242.344 960.4 242.344V240.344C956.471 240.344 952.991 241.036 949.988 242.455L950.843 244.264ZM960.4 242.344C964.23 242.344 967.528 243.127 970.326 244.658L971.286 242.904C968.147 241.186 964.507 240.344 960.4 240.344V242.344ZM970.333 244.662C973.15 246.175 975.344 248.24 976.936 250.862L978.646 249.825C976.862 246.885 974.399 244.575 971.279 242.9L970.333 244.662ZM976.943 250.874C978.563 253.466 979.455 256.421 979.604 259.763L981.602 259.674C981.439 256.016 980.456 252.721 978.639 249.814L976.943 250.874ZM980.603 258.719H972.353V260.719H980.603V258.719ZM973.35 259.644C973.183 257.402 972.544 255.357 971.425 253.525L969.719 254.568C970.662 256.112 971.211 257.848 971.356 259.793L973.35 259.644ZM971.432 253.537C970.341 251.696 968.839 250.231 966.943 249.147L965.951 250.884C967.555 251.8 968.802 253.022 969.712 254.557L971.432 253.537ZM966.961 249.158C965.065 248.02 962.865 247.469 960.4 247.469V249.469C962.56 249.469 964.392 249.949 965.932 250.873L966.961 249.158ZM960.4 247.469C957.612 247.469 955.193 248.027 953.191 249.2L954.203 250.925C955.826 249.973 957.875 249.469 960.4 249.469V247.469ZM953.196 249.197C951.266 250.314 949.721 251.843 948.572 253.769L950.29 254.794C951.266 253.157 952.565 251.873 954.198 250.928L953.196 249.197ZM948.57 253.774C947.48 255.623 946.693 257.677 946.204 259.928L948.158 260.353C948.606 258.292 949.32 256.44 950.293 254.789L948.57 253.774ZM946.202 259.939C945.75 262.132 945.525 264.371 945.525 266.656H947.525C947.525 264.504 947.737 262.399 948.161 260.342L946.202 259.939ZM945.525 266.656V268.625H947.525V266.656H945.525ZM945.525 268.625C945.525 270.91 945.75 273.164 946.201 275.386L948.161 274.989C947.737 272.898 947.525 270.778 947.525 268.625H945.525ZM946.201 275.386C946.659 277.642 947.431 279.701 948.523 281.555L950.246 280.539C949.275 278.892 948.579 277.045 948.161 274.989L946.201 275.386ZM948.53 281.566C949.678 283.457 951.218 284.979 953.138 286.124L954.162 284.407C952.519 283.427 951.216 282.136 950.239 280.528L948.53 281.566ZM953.155 286.135C955.156 287.273 957.588 287.812 960.4 287.812V285.812C957.837 285.812 955.769 285.321 954.144 284.396L953.155 286.135ZM1018.59 292.156L1018.2 293.075L1018.21 293.081L1018.59 292.156ZM1011.23 287.047L1010.5 287.727L1010.5 287.733L1011.23 287.047ZM1006.73 256.438L1007.67 256.792L1007.67 256.789L1006.73 256.438ZM1036.45 243.219L1036.02 244.122L1036.02 244.124L1036.45 243.219ZM1042.97 248.469L1042.17 249.069L1042.17 249.074L1042.97 248.469ZM1046.72 256.344L1045.75 256.603L1045.75 256.605L1046.72 256.344ZM1047.93 270.078V271.078H1048.93V270.078H1047.93ZM1010.06 270.078H1009.06V271.078H1010.06V270.078ZM1010.06 263V262H1009.06V263H1010.06ZM1039.26 263V264H1040.26V263H1039.26ZM1039.26 262.344H1040.26V262.316L1040.26 262.288L1039.26 262.344ZM1037.86 255.781L1036.92 256.126L1036.92 256.138L1037.86 255.781ZM1021.64 249.734L1022.08 250.632L1022.08 250.629L1022.09 250.625L1021.64 249.734ZM1014.61 276.219L1013.65 276.514L1013.65 276.522L1013.66 276.531L1014.61 276.219ZM1017.56 281.75L1016.78 282.377L1016.79 282.386L1017.56 281.75ZM1022.29 285.5L1021.85 286.397L1021.86 286.4L1022.29 285.5ZM1042.03 279.969L1042.65 279.186L1041.85 278.551L1041.23 279.363L1042.03 279.969ZM1047.28 284.141L1048.11 284.692L1048.62 283.927L1047.9 283.358L1047.28 284.141ZM1036.87 292.531L1036.52 291.596L1036.51 291.598L1036.87 292.531ZM1028.2 292.938C1024.78 292.938 1021.71 292.363 1018.97 291.232L1018.21 293.081C1021.22 294.324 1024.56 294.938 1028.2 294.938V292.938ZM1018.98 291.237C1016.26 290.071 1013.92 288.446 1011.96 286.361L1010.5 287.733C1012.66 290.023 1015.23 291.804 1018.2 293.075L1018.98 291.237ZM1011.96 286.366C1010.03 284.283 1008.53 281.807 1007.48 278.923L1005.6 279.608C1006.74 282.725 1008.37 285.435 1010.5 287.727L1011.96 286.366ZM1007.48 278.923C1006.43 276.045 1005.9 272.881 1005.9 269.422H1003.9C1003.9 273.088 1004.47 276.486 1005.6 279.608L1007.48 278.923ZM1005.9 269.422V267.453H1003.9V269.422H1005.9ZM1005.9 267.453C1005.9 263.426 1006.5 259.877 1007.67 256.792L1005.8 256.083C1004.53 259.435 1003.9 263.231 1003.9 267.453H1005.9ZM1007.67 256.789C1008.85 253.645 1010.44 251.011 1012.43 248.869L1010.97 247.506C1008.77 249.864 1007.05 252.73 1005.79 256.086L1007.67 256.789ZM1012.43 248.869C1014.44 246.713 1016.7 245.093 1019.22 243.995L1018.43 242.161C1015.64 243.376 1013.15 245.162 1010.97 247.506L1012.43 248.869ZM1019.22 243.995C1021.76 242.893 1024.37 242.344 1027.08 242.344V240.344C1024.09 240.344 1021.21 240.951 1018.43 242.161L1019.22 243.995ZM1027.08 242.344C1030.59 242.344 1033.56 242.949 1036.02 244.122L1036.88 242.316C1034.09 240.988 1030.81 240.344 1027.08 240.344V242.344ZM1036.02 244.124C1038.54 245.307 1040.58 246.955 1042.17 249.069L1043.77 247.869C1041.98 245.482 1039.67 243.63 1036.88 242.314L1036.02 244.124ZM1042.17 249.074C1043.77 251.177 1044.97 253.681 1045.75 256.603L1047.68 256.085C1046.84 252.944 1045.54 250.198 1043.76 247.863L1042.17 249.074ZM1045.75 256.605C1046.54 259.509 1046.93 262.701 1046.93 266.188H1048.93C1048.93 262.549 1048.52 259.179 1047.68 256.082L1045.75 256.605ZM1046.93 266.188V270.078H1048.93V266.188H1046.93ZM1047.93 269.078H1010.06V271.078H1047.93V269.078ZM1011.06 270.078V263H1009.06V270.078H1011.06ZM1010.06 264H1039.26V262H1010.06V264ZM1040.26 263V262.344H1038.26V263H1040.26ZM1040.26 262.288C1040.13 259.934 1039.64 257.645 1038.79 255.424L1036.92 256.138C1037.7 258.168 1038.14 260.254 1038.26 262.399L1040.26 262.288ZM1038.79 255.436C1037.95 253.145 1036.6 251.243 1034.73 249.75L1033.48 251.312C1035.05 252.57 1036.2 254.167 1036.92 256.126L1038.79 255.436ZM1034.73 249.75C1032.78 248.191 1030.19 247.469 1027.08 247.469V249.469C1029.9 249.469 1031.99 250.121 1033.48 251.312L1034.73 249.75ZM1027.08 247.469C1024.96 247.469 1022.99 247.924 1021.18 248.843L1022.09 250.625C1023.6 249.858 1025.25 249.469 1027.08 249.469V247.469ZM1021.2 248.837C1019.38 249.727 1017.84 251.057 1016.56 252.801L1018.18 253.981C1019.28 252.474 1020.58 251.367 1022.08 250.632L1021.2 248.837ZM1016.56 252.801C1015.29 254.54 1014.33 256.639 1013.64 259.074L1015.57 259.613C1016.2 257.361 1017.08 255.491 1018.18 253.981L1016.56 252.801ZM1013.64 259.074C1012.96 261.525 1012.62 264.322 1012.62 267.453H1014.62C1014.62 264.459 1014.94 261.85 1015.57 259.613L1013.64 259.074ZM1012.62 267.453V269.422H1014.62V267.453H1012.62ZM1012.62 269.422C1012.62 271.92 1012.96 274.286 1013.65 276.514L1015.56 275.924C1014.94 273.902 1014.62 271.736 1014.62 269.422H1012.62ZM1013.66 276.531C1014.38 278.73 1015.42 280.682 1016.78 282.377L1018.34 281.123C1017.14 279.63 1016.21 277.895 1015.56 275.907L1013.66 276.531ZM1016.79 282.386C1018.19 284.089 1019.88 285.428 1021.85 286.397L1022.73 284.603C1021.02 283.759 1019.55 282.599 1018.33 281.114L1016.79 282.386ZM1021.86 286.4C1023.89 287.381 1026.16 287.859 1028.67 287.859V285.859C1026.42 285.859 1024.45 285.432 1022.73 284.6L1021.86 286.4ZM1028.67 287.859C1031.87 287.859 1034.65 287.206 1036.96 285.846L1035.94 284.122C1034 285.263 1031.6 285.859 1028.67 285.859V287.859ZM1036.96 285.846C1039.2 284.526 1041.16 282.765 1042.82 280.574L1041.23 279.363C1039.71 281.36 1037.95 282.943 1035.94 284.122L1036.96 285.846ZM1041.41 280.752L1046.66 284.924L1047.9 283.358L1042.65 279.186L1041.41 280.752ZM1046.44 283.59C1045.4 285.164 1044.07 286.678 1042.44 288.128L1043.77 289.622C1045.51 288.072 1046.96 286.43 1048.11 284.692L1046.44 283.59ZM1042.44 288.128C1040.86 289.534 1038.89 290.695 1036.52 291.596L1037.23 293.466C1039.79 292.493 1041.98 291.216 1043.77 289.622L1042.44 288.128ZM1036.51 291.598C1034.22 292.481 1031.45 292.938 1028.2 292.938V294.938C1031.63 294.938 1034.65 294.457 1037.23 293.465L1036.51 291.598Z" fill="white" fill-opacity="0.7"/>
<path d="M38.0859 81.3984V183H16.2891V56.2031H36.9141L38.0859 81.3984ZM33.6328 114.797L23.5547 114.445C23.6328 105.773 24.7656 97.7656 26.9531 90.4219C29.1406 83 32.3828 76.5547 36.6797 71.0859C40.9766 65.6172 46.3281 61.3984 52.7344 58.4297C59.1406 55.3828 66.5625 53.8594 75 53.8594C80.9375 53.8594 86.4062 54.7187 91.4062 56.4375C96.4062 58.0781 100.742 60.6953 104.414 64.2891C108.086 67.8828 110.938 72.4922 112.969 78.1172C115 83.7422 116.016 90.5391 116.016 98.5078V183H94.3359V99.5625C94.3359 92.9219 93.2031 87.6094 90.9375 83.625C88.75 79.6406 85.625 76.75 81.5625 74.9531C77.5 73.0781 72.7344 72.1406 67.2656 72.1406C60.8594 72.1406 55.5078 73.2734 51.2109 75.5391C46.9141 77.8047 43.4766 80.9297 40.8984 84.9141C38.3203 88.8984 36.4453 93.4688 35.2734 98.625C34.1797 103.703 33.6328 109.094 33.6328 114.797ZM115.781 102.844L101.25 107.297C101.328 100.344 102.461 93.6641 104.648 87.2578C106.914 80.8516 110.156 75.1484 114.375 70.1484C118.672 65.1484 123.945 61.2031 130.195 58.3125C136.445 55.3438 143.594 53.8594 151.641 53.8594C158.438 53.8594 164.453 54.7578 169.688 56.5547C175 58.3516 179.453 61.125 183.047 64.875C186.719 68.5469 189.492 73.2734 191.367 79.0547C193.242 84.8359 194.18 91.7109 194.18 99.6797V183H172.383V99.4453C172.383 92.3359 171.25 86.8281 168.984 82.9219C166.797 78.9375 163.672 76.1641 159.609 74.6016C155.625 72.9609 150.859 72.1406 145.312 72.1406C140.547 72.1406 136.328 72.9609 132.656 74.6016C128.984 76.2422 125.898 78.5078 123.398 81.3984C120.898 84.2109 118.984 87.4531 117.656 91.125C116.406 94.7969 115.781 98.7031 115.781 102.844ZM275.747 56.2031V183H253.95V56.2031H275.747ZM252.309 22.5703C252.309 19.0547 253.364 16.0859 255.473 13.6641C257.661 11.2422 260.864 10.0312 265.083 10.0312C269.223 10.0312 272.387 11.2422 274.575 13.6641C276.841 16.0859 277.973 19.0547 277.973 22.5703C277.973 25.9297 276.841 28.8203 274.575 31.2422C272.387 33.5859 269.223 34.7578 265.083 34.7578C260.864 34.7578 257.661 33.5859 255.473 31.2422C253.364 28.8203 252.309 25.9297 252.309 22.5703ZM357.431 83.2734V183H335.752V56.2031H356.259L357.431 83.2734ZM352.275 114.797L343.252 114.445C343.33 105.773 344.619 97.7656 347.119 90.4219C349.619 83 353.134 76.5547 357.666 71.0859C362.197 65.6172 367.587 61.3984 373.837 58.4297C380.166 55.3828 387.158 53.8594 394.814 53.8594C401.064 53.8594 406.689 54.7187 411.689 56.4375C416.689 58.0781 420.947 60.7344 424.462 64.4062C428.056 68.0781 430.791 72.8438 432.666 78.7031C434.541 84.4844 435.478 91.5547 435.478 99.9141V183H413.681V99.6797C413.681 93.0391 412.705 87.7266 410.752 83.7422C408.798 79.6797 405.947 76.75 402.197 74.9531C398.447 73.0781 393.837 72.1406 388.369 72.1406C382.978 72.1406 378.056 73.2734 373.603 75.5391C369.228 77.8047 365.439 80.9297 362.236 84.9141C359.111 88.8984 356.65 93.4688 354.853 98.625C353.134 103.703 352.275 109.094 352.275 114.797ZM546.694 56.2031V72.8438H478.139V56.2031H546.694ZM501.342 25.3828H523.022V151.594C523.022 155.891 523.686 159.133 525.014 161.32C526.342 163.508 528.061 164.953 530.17 165.656C532.28 166.359 534.545 166.711 536.967 166.711C538.764 166.711 540.639 166.555 542.592 166.242C544.623 165.852 546.147 165.539 547.163 165.305L547.28 183C545.561 183.547 543.295 184.055 540.483 184.523C537.748 185.07 534.428 185.344 530.522 185.344C525.209 185.344 520.327 184.289 515.873 182.18C511.42 180.07 507.866 176.555 505.209 171.633C502.631 166.633 501.342 159.914 501.342 151.477V25.3828ZM626.269 183H604.589V45.1875C604.589 35.5781 606.464 27.4531 610.214 20.8125C613.964 14.1719 619.316 9.13281 626.269 5.69531C633.222 2.25781 641.464 0.539062 650.995 0.539062C656.62 0.539062 662.128 1.24219 667.519 2.64844C672.909 3.97656 678.456 5.65625 684.159 7.6875L680.527 25.9688C676.933 24.5625 672.753 23.2344 667.987 21.9844C663.3 20.6563 658.144 19.9922 652.519 19.9922C643.222 19.9922 636.503 22.1016 632.362 26.3203C628.3 30.4609 626.269 36.75 626.269 45.1875V183ZM652.167 56.2031V72.8438H584.55V56.2031H652.167ZM694.823 56.2031V183H673.144V56.2031H694.823ZM777.328 83.2734V183H755.648V56.2031H776.156L777.328 83.2734ZM772.172 114.797L763.148 114.445C763.227 105.773 764.516 97.7656 767.016 90.4219C769.516 83 773.031 76.5547 777.562 71.0859C782.094 65.6172 787.484 61.3984 793.734 58.4297C800.062 55.3828 807.055 53.8594 814.711 53.8594C820.961 53.8594 826.586 54.7187 831.586 56.4375C836.586 58.0781 840.844 60.7344 844.359 64.4062C847.953 68.0781 850.688 72.8438 852.562 78.7031C854.438 84.4844 855.375 91.5547 855.375 99.9141V183H833.578V99.6797C833.578 93.0391 832.602 87.7266 830.648 83.7422C828.695 79.6797 825.844 76.75 822.094 74.9531C818.344 73.0781 813.734 72.1406 808.266 72.1406C802.875 72.1406 797.953 73.2734 793.5 75.5391C789.125 77.8047 785.336 80.9297 782.133 84.9141C779.008 88.8984 776.547 93.4688 774.75 98.625C773.031 103.703 772.172 109.094 772.172 114.797ZM937.059 56.2031V183H915.263V56.2031H937.059ZM913.622 22.5703C913.622 19.0547 914.677 16.0859 916.786 13.6641C918.973 11.2422 922.177 10.0312 926.395 10.0312C930.536 10.0312 933.7 11.2422 935.888 13.6641C938.153 16.0859 939.286 19.0547 939.286 22.5703C939.286 25.9297 938.153 28.8203 935.888 31.2422C933.7 33.5859 930.536 34.7578 926.395 34.7578C922.177 34.7578 918.973 33.5859 916.786 31.2422C914.677 28.8203 913.622 25.9297 913.622 22.5703ZM1050.15 56.2031V72.8438H981.595V56.2031H1050.15ZM1004.8 25.3828H1026.48V151.594C1026.48 155.891 1027.14 159.133 1028.47 161.32C1029.8 163.508 1031.52 164.953 1033.63 165.656C1035.74 166.359 1038 166.711 1040.42 166.711C1042.22 166.711 1044.1 166.555 1046.05 166.242C1048.08 165.852 1049.6 165.539 1050.62 165.305L1050.74 183C1049.02 183.547 1046.75 184.055 1043.94 184.523C1041.2 185.07 1037.88 185.344 1033.98 185.344C1028.67 185.344 1023.78 184.289 1019.33 182.18C1014.88 180.07 1011.32 176.555 1008.67 171.633C1006.09 166.633 1004.8 159.914 1004.8 151.477V25.3828ZM1136.4 169.875L1171.68 56.2031H1194.88L1144.02 202.57C1142.85 205.695 1141.29 209.055 1139.33 212.648C1137.46 216.32 1135.04 219.797 1132.07 223.078C1129.1 226.359 1125.51 229.016 1121.29 231.047C1117.15 233.156 1112.19 234.211 1106.4 234.211C1104.69 234.211 1102.5 233.977 1099.84 233.508C1097.19 233.039 1095.31 232.648 1094.22 232.336L1094.1 214.758C1094.72 214.836 1095.7 214.914 1097.03 214.992C1098.44 215.148 1099.41 215.227 1099.96 215.227C1104.88 215.227 1109.06 214.562 1112.5 213.234C1115.94 211.984 1118.83 209.836 1121.17 206.789C1123.59 203.82 1125.66 199.719 1127.38 194.484L1136.4 169.875ZM1110.51 56.2031L1143.44 154.641L1149.06 177.492L1133.47 185.461L1086.83 56.2031H1110.51Z" fill="white" fill-opacity="0.6"/>
</svg>
