<svg width="1103" height="300" viewBox="0 0 1103 300" fill="none" xmlns="http://www.w3.org/2000/svg">
<path d="M122.125 160.297H131.125C130.656 164.609 129.422 168.469 127.422 171.875C125.422 175.281 122.594 177.984 118.938 179.984C115.281 181.953 110.719 182.938 105.25 182.938C101.25 182.938 97.6094 182.188 94.3281 180.688C91.0781 179.188 88.2812 177.062 85.9375 174.312C83.5938 171.531 81.7812 168.203 80.5 164.328C79.25 160.422 78.625 156.078 78.625 151.297V144.5C78.625 139.719 79.25 135.391 80.5 131.516C81.7812 127.609 83.6094 124.266 85.9844 121.484C88.3906 118.703 91.2812 116.562 94.6562 115.062C98.0312 113.562 101.828 112.812 106.047 112.812C111.203 112.812 115.562 113.781 119.125 115.719C122.688 117.656 125.453 120.344 127.422 123.781C129.422 127.188 130.656 131.141 131.125 135.641H122.125C121.688 132.453 120.875 129.719 119.688 127.438C118.5 125.125 116.812 123.344 114.625 122.094C112.438 120.844 109.578 120.219 106.047 120.219C103.016 120.219 100.344 120.797 98.0312 121.953C95.75 123.109 93.8281 124.75 92.2656 126.875C90.7344 129 89.5781 131.547 88.7969 134.516C88.0156 137.484 87.625 140.781 87.625 144.406V151.297C87.625 154.641 87.9688 157.781 88.6562 160.719C89.375 163.656 90.4531 166.234 91.8906 168.453C93.3281 170.672 95.1562 172.422 97.375 173.703C99.5938 174.953 102.219 175.578 105.25 175.578C109.094 175.578 112.156 174.969 114.438 173.75C116.719 172.531 118.438 170.781 119.594 168.5C120.781 166.219 121.625 163.484 122.125 160.297ZM196 145.719V150.031C196 155.156 195.359 159.75 194.078 163.812C192.797 167.875 190.953 171.328 188.547 174.172C186.141 177.016 183.25 179.188 179.875 180.688C176.531 182.188 172.781 182.938 168.625 182.938C164.594 182.938 160.891 182.188 157.516 180.688C154.172 179.188 151.266 177.016 148.797 174.172C146.359 171.328 144.469 167.875 143.125 163.812C141.781 159.75 141.109 155.156 141.109 150.031V145.719C141.109 140.594 141.766 136.016 143.078 131.984C144.422 127.922 146.312 124.469 148.75 121.625C151.188 118.75 154.078 116.562 157.422 115.062C160.797 113.562 164.5 112.812 168.531 112.812C172.688 112.812 176.438 113.562 179.781 115.062C183.156 116.562 186.047 118.75 188.453 121.625C190.891 124.469 192.75 127.922 194.031 131.984C195.344 136.016 196 140.594 196 145.719ZM187.047 150.031V145.625C187.047 141.562 186.625 137.969 185.781 134.844C184.969 131.719 183.766 129.094 182.172 126.969C180.578 124.844 178.625 123.234 176.312 122.141C174.031 121.047 171.438 120.5 168.531 120.5C165.719 120.5 163.172 121.047 160.891 122.141C158.641 123.234 156.703 124.844 155.078 126.969C153.484 129.094 152.25 131.719 151.375 134.844C150.5 137.969 150.062 141.562 150.062 145.625V150.031C150.062 154.125 150.5 157.75 151.375 160.906C152.25 164.031 153.5 166.672 155.125 168.828C156.781 170.953 158.734 172.562 160.984 173.656C163.266 174.75 165.812 175.297 168.625 175.297C171.562 175.297 174.172 174.75 176.453 173.656C178.734 172.562 180.656 170.953 182.219 168.828C183.812 166.672 185.016 164.031 185.828 160.906C186.641 157.75 187.047 154.125 187.047 150.031ZM250.938 174.641V182H216.812V174.641H250.938ZM218.594 113.75V182H209.547V113.75H218.594ZM302.688 174.641V182H268.562V174.641H302.688ZM270.344 113.75V182H261.297V113.75H270.344ZM356.406 174.641V182H320.266V174.641H356.406ZM322.094 113.75V182H313.047V113.75H322.094ZM351.625 143.094V150.453H320.266V143.094H351.625ZM355.938 113.75V121.156H320.266V113.75H355.938ZM408.812 160.297H417.812C417.344 164.609 416.109 168.469 414.109 171.875C412.109 175.281 409.281 177.984 405.625 179.984C401.969 181.953 397.406 182.938 391.938 182.938C387.938 182.938 384.297 182.188 381.016 180.688C377.766 179.188 374.969 177.062 372.625 174.312C370.281 171.531 368.469 168.203 367.188 164.328C365.938 160.422 365.312 156.078 365.312 151.297V144.5C365.312 139.719 365.938 135.391 367.188 131.516C368.469 127.609 370.297 124.266 372.672 121.484C375.078 118.703 377.969 116.562 381.344 115.062C384.719 113.562 388.516 112.812 392.734 112.812C397.891 112.812 402.25 113.781 405.812 115.719C409.375 117.656 412.141 120.344 414.109 123.781C416.109 127.188 417.344 131.141 417.812 135.641H408.812C408.375 132.453 407.562 129.719 406.375 127.438C405.188 125.125 403.5 123.344 401.312 122.094C399.125 120.844 396.266 120.219 392.734 120.219C389.703 120.219 387.031 120.797 384.719 121.953C382.438 123.109 380.516 124.75 378.953 126.875C377.422 129 376.266 131.547 375.484 134.516C374.703 137.484 374.312 140.781 374.312 144.406V151.297C374.312 154.641 374.656 157.781 375.344 160.719C376.062 163.656 377.141 166.234 378.578 168.453C380.016 170.672 381.844 172.422 384.062 173.703C386.281 174.953 388.906 175.578 391.938 175.578C395.781 175.578 398.844 174.969 401.125 173.75C403.406 172.531 405.125 170.781 406.281 168.5C407.469 166.219 408.312 163.484 408.812 160.297ZM453.953 113.75V182H445.047V113.75H453.953ZM475.891 113.75V121.156H423.156V113.75H475.891Z" fill="white"/>
<path d="M310.297 258.75C310.297 257.156 310.047 255.75 309.547 254.531C309.078 253.281 308.234 252.156 307.016 251.156C305.828 250.156 304.172 249.203 302.047 248.297C299.953 247.391 297.297 246.469 294.078 245.531C290.703 244.531 287.656 243.422 284.938 242.203C282.219 240.953 279.891 239.531 277.953 237.938C276.016 236.344 274.531 234.516 273.5 232.453C272.469 230.391 271.953 228.031 271.953 225.375C271.953 222.719 272.5 220.266 273.594 218.016C274.688 215.766 276.25 213.812 278.281 212.156C280.344 210.469 282.797 209.156 285.641 208.219C288.484 207.281 291.656 206.812 295.156 206.812C300.281 206.812 304.625 207.797 308.188 209.766C311.781 211.703 314.516 214.25 316.391 217.406C318.266 220.531 319.203 223.875 319.203 227.438H310.203C310.203 224.875 309.656 222.609 308.562 220.641C307.469 218.641 305.812 217.078 303.594 215.953C301.375 214.797 298.562 214.219 295.156 214.219C291.938 214.219 289.281 214.703 287.188 215.672C285.094 216.641 283.531 217.953 282.5 219.609C281.5 221.266 281 223.156 281 225.281C281 226.719 281.297 228.031 281.891 229.219C282.516 230.375 283.469 231.453 284.75 232.453C286.062 233.453 287.719 234.375 289.719 235.219C291.75 236.062 294.172 236.875 296.984 237.656C300.859 238.75 304.203 239.969 307.016 241.312C309.828 242.656 312.141 244.172 313.953 245.859C315.797 247.516 317.156 249.406 318.031 251.531C318.938 253.625 319.391 256 319.391 258.656C319.391 261.438 318.828 263.953 317.703 266.203C316.578 268.453 314.969 270.375 312.875 271.969C310.781 273.562 308.266 274.797 305.328 275.672C302.422 276.516 299.172 276.938 295.578 276.938C292.422 276.938 289.312 276.5 286.25 275.625C283.219 274.75 280.453 273.438 277.953 271.688C275.484 269.938 273.5 267.781 272 265.219C270.531 262.625 269.797 259.625 269.797 256.219H278.797C278.797 258.562 279.25 260.578 280.156 262.266C281.062 263.922 282.297 265.297 283.859 266.391C285.453 267.484 287.25 268.297 289.25 268.828C291.281 269.328 293.391 269.578 295.578 269.578C298.734 269.578 301.406 269.141 303.594 268.266C305.781 267.391 307.438 266.141 308.562 264.516C309.719 262.891 310.297 260.969 310.297 258.75ZM374.281 268.641V276H338.141V268.641H374.281ZM339.969 207.75V276H330.922V207.75H339.969ZM369.5 237.094V244.453H338.141V237.094H369.5ZM373.812 207.75V215.156H338.141V207.75H373.812ZM426.875 268.641V276H392.75V268.641H426.875ZM394.531 207.75V276H385.484V207.75H394.531ZM478.625 268.641V276H444.5V268.641H478.625ZM446.281 207.75V276H437.234V207.75H446.281Z" fill="white"/>
<path d="M26.3904 87.9983H12.1404L12.2341 80.6389H26.3904C31.2654 80.6389 35.3279 79.6233 38.5779 77.592C41.8279 75.5295 44.2654 72.6545 45.8904 68.967C47.5466 65.2483 48.3748 60.9045 48.3748 55.9358V51.7639C48.3748 47.8577 47.906 44.3889 46.9685 41.3577C46.031 38.2952 44.656 35.717 42.8435 33.6233C41.031 31.4983 38.8123 29.8889 36.1873 28.7952C33.5935 27.7014 30.6091 27.1545 27.2341 27.1545H11.8591V19.7483H27.2341C31.7029 19.7483 35.781 20.4983 39.4685 21.9983C43.156 23.467 46.3279 25.6077 48.9841 28.4202C51.6716 31.2014 53.7341 34.5764 55.1716 38.5452C56.6091 42.4827 57.3279 46.9202 57.3279 51.8577V55.9358C57.3279 60.8733 56.6091 65.3264 55.1716 69.2952C53.7341 73.2327 51.656 76.592 48.9373 79.3733C46.2498 82.1545 42.9998 84.2952 39.1873 85.7952C35.406 87.2639 31.1404 87.9983 26.3904 87.9983ZM16.9685 19.7483V87.9983H7.92163V19.7483H16.9685ZM85.4248 19.7483V87.9983H76.3779V19.7483H85.4248ZM143.053 70.7483C143.053 69.1545 142.803 67.7483 142.303 66.5295C141.834 65.2795 140.99 64.1545 139.772 63.1545C138.584 62.1545 136.928 61.2014 134.803 60.2952C132.709 59.3889 130.053 58.467 126.834 57.5295C123.459 56.5295 120.412 55.4202 117.694 54.2014C114.975 52.9514 112.647 51.5295 110.709 49.9358C108.772 48.342 107.287 46.5139 106.256 44.4514C105.225 42.3889 104.709 40.0295 104.709 37.3733C104.709 34.717 105.256 32.2639 106.35 30.0139C107.444 27.7639 109.006 25.8108 111.037 24.1545C113.1 22.467 115.553 21.1545 118.397 20.217C121.24 19.2795 124.412 18.8108 127.912 18.8108C133.037 18.8108 137.381 19.7952 140.944 21.7639C144.537 23.7014 147.272 26.2483 149.147 29.4045C151.022 32.5295 151.959 35.8733 151.959 39.4358H142.959C142.959 36.8733 142.412 34.6077 141.319 32.6389C140.225 30.6389 138.569 29.0764 136.35 27.9514C134.131 26.7952 131.319 26.217 127.912 26.217C124.694 26.217 122.037 26.7014 119.944 27.6702C117.85 28.6389 116.287 29.9514 115.256 31.6077C114.256 33.2639 113.756 35.1545 113.756 37.2795C113.756 38.717 114.053 40.0295 114.647 41.217C115.272 42.3733 116.225 43.4514 117.506 44.4514C118.819 45.4514 120.475 46.3733 122.475 47.217C124.506 48.0608 126.928 48.8733 129.74 49.6545C133.615 50.7483 136.959 51.967 139.772 53.3108C142.584 54.6545 144.897 56.1702 146.709 57.8577C148.553 59.5139 149.912 61.4045 150.787 63.5295C151.694 65.6233 152.147 67.9983 152.147 70.6545C152.147 73.4358 151.584 75.9514 150.459 78.2014C149.334 80.4514 147.725 82.3733 145.631 83.967C143.537 85.5608 141.022 86.7952 138.084 87.6702C135.178 88.5139 131.928 88.9358 128.334 88.9358C125.178 88.9358 122.069 88.4983 119.006 87.6233C115.975 86.7483 113.209 85.4358 110.709 83.6858C108.24 81.9358 106.256 79.7795 104.756 77.217C103.287 74.6233 102.553 71.6233 102.553 68.217H111.553C111.553 70.5608 112.006 72.5764 112.912 74.2639C113.819 75.9202 115.053 77.2952 116.615 78.3889C118.209 79.4827 120.006 80.2952 122.006 80.8264C124.037 81.3264 126.147 81.5764 128.334 81.5764C131.49 81.5764 134.162 81.1389 136.35 80.2639C138.537 79.3889 140.194 78.1389 141.319 76.5139C142.475 74.8889 143.053 72.967 143.053 70.7483ZM209.681 66.2952H218.681C218.212 70.6077 216.978 74.467 214.978 77.8733C212.978 81.2795 210.15 83.9827 206.493 85.9827C202.837 87.9514 198.275 88.9358 192.806 88.9358C188.806 88.9358 185.165 88.1858 181.884 86.6858C178.634 85.1858 175.837 83.0608 173.493 80.3108C171.15 77.5295 169.337 74.2014 168.056 70.3264C166.806 66.4202 166.181 62.0764 166.181 57.2952V50.4983C166.181 45.717 166.806 41.3889 168.056 37.5139C169.337 33.6077 171.165 30.2639 173.54 27.4827C175.947 24.7014 178.837 22.5608 182.212 21.0608C185.587 19.5608 189.384 18.8108 193.603 18.8108C198.759 18.8108 203.118 19.7795 206.681 21.717C210.243 23.6545 213.009 26.342 214.978 29.7795C216.978 33.1858 218.212 37.1389 218.681 41.6389H209.681C209.243 38.4514 208.431 35.717 207.243 33.4358C206.056 31.1233 204.368 29.342 202.181 28.092C199.993 26.842 197.134 26.217 193.603 26.217C190.572 26.217 187.9 26.7952 185.587 27.9514C183.306 29.1077 181.384 30.7483 179.822 32.8733C178.29 34.9983 177.134 37.5452 176.353 40.5139C175.572 43.4827 175.181 46.7795 175.181 50.4045V57.2952C175.181 60.6389 175.525 63.7795 176.212 66.717C176.931 69.6545 178.009 72.2327 179.447 74.4514C180.884 76.6702 182.712 78.4202 184.931 79.7014C187.15 80.9514 189.775 81.5764 192.806 81.5764C196.65 81.5764 199.712 80.967 201.993 79.7483C204.275 78.5295 205.993 76.7795 207.15 74.4983C208.337 72.217 209.181 69.4827 209.681 66.2952ZM288.356 51.717V56.0295C288.356 61.1545 287.715 65.7483 286.434 69.8108C285.153 73.8733 283.309 77.3264 280.903 80.1702C278.497 83.0139 275.606 85.1858 272.231 86.6858C268.887 88.1858 265.137 88.9358 260.981 88.9358C256.95 88.9358 253.247 88.1858 249.872 86.6858C246.528 85.1858 243.622 83.0139 241.153 80.1702C238.715 77.3264 236.825 73.8733 235.481 69.8108C234.137 65.7483 233.465 61.1545 233.465 56.0295V51.717C233.465 46.592 234.122 42.0139 235.434 37.9827C236.778 33.9202 238.669 30.467 241.106 27.6233C243.544 24.7483 246.434 22.5608 249.778 21.0608C253.153 19.5608 256.856 18.8108 260.887 18.8108C265.044 18.8108 268.794 19.5608 272.137 21.0608C275.512 22.5608 278.403 24.7483 280.809 27.6233C283.247 30.467 285.106 33.9202 286.387 37.9827C287.7 42.0139 288.356 46.592 288.356 51.717ZM279.403 56.0295V51.6233C279.403 47.5608 278.981 43.967 278.137 40.842C277.325 37.717 276.122 35.092 274.528 32.967C272.934 30.842 270.981 29.2327 268.669 28.1389C266.387 27.0452 263.794 26.4983 260.887 26.4983C258.075 26.4983 255.528 27.0452 253.247 28.1389C250.997 29.2327 249.059 30.842 247.434 32.967C245.84 35.092 244.606 37.717 243.731 40.842C242.856 43.967 242.419 47.5608 242.419 51.6233V56.0295C242.419 60.1233 242.856 63.7483 243.731 66.9045C244.606 70.0295 245.856 72.6702 247.481 74.8264C249.137 76.9514 251.09 78.5608 253.34 79.6545C255.622 80.7483 258.169 81.2952 260.981 81.2952C263.919 81.2952 266.528 80.7483 268.809 79.6545C271.09 78.5608 273.012 76.9514 274.575 74.8264C276.169 72.6702 277.372 70.0295 278.184 66.9045C278.997 63.7483 279.403 60.1233 279.403 56.0295ZM327.703 77.6389L347.812 19.7483H357.609L332.344 87.9983H325.359L327.703 77.6389ZM308.906 19.7483L328.828 77.6389L331.312 87.9983H324.328L299.109 19.7483H308.906ZM414.956 80.6389V87.9983H378.815V80.6389H414.956ZM380.643 19.7483V87.9983H371.597V19.7483H380.643ZM410.175 49.092V56.4514H378.815V49.092H410.175ZM414.487 19.7483V27.1545H378.815V19.7483H414.487ZM430.959 19.7483H453.553C458.678 19.7483 463.006 20.5295 466.537 22.092C470.1 23.6545 472.803 25.967 474.647 29.0295C476.522 32.0608 477.459 35.7952 477.459 40.2327C477.459 43.3577 476.819 46.217 475.537 48.8108C474.287 51.3733 472.475 53.5608 470.1 55.3733C467.756 57.1545 464.944 58.4827 461.662 59.3577L459.131 60.342H437.897L437.803 52.9827H453.834C457.084 52.9827 459.787 52.4202 461.944 51.2952C464.1 50.1389 465.725 48.592 466.819 46.6545C467.912 44.717 468.459 42.5764 468.459 40.2327C468.459 37.6077 467.944 35.3108 466.912 33.342C465.881 31.3733 464.256 29.8577 462.037 28.7952C459.85 27.7014 457.022 27.1545 453.553 27.1545H440.006V87.9983H430.959V19.7483ZM470.85 87.9983L454.256 57.0608L463.678 57.0139L480.506 87.4358V87.9983H470.85Z" fill="white"/>
<path d="M634.125 56V238H609.875L518.25 97.625V238H494.125V56H518.25L610.25 196.75V56H634.125ZM701 56V238H676.875V56H701ZM777.25 137.875V157.625H695.75V137.875H777.25ZM789.625 56V75.75H695.75V56H789.625ZM888.125 56V238H864.375V56H888.125ZM946.625 56V75.75H806V56H946.625ZM1068.62 192C1068.62 187.75 1067.96 184 1066.62 180.75C1065.38 177.417 1063.12 174.417 1059.88 171.75C1056.71 169.083 1052.29 166.542 1046.62 164.125C1041.04 161.708 1033.96 159.25 1025.38 156.75C1016.38 154.083 1008.25 151.125 1001 147.875C993.75 144.542 987.542 140.75 982.375 136.5C977.208 132.25 973.25 127.375 970.5 121.875C967.75 116.375 966.375 110.083 966.375 103C966.375 95.9167 967.833 89.375 970.75 83.375C973.667 77.375 977.833 72.1667 983.25 67.75C988.75 63.25 995.292 59.75 1002.88 57.25C1010.46 54.75 1018.92 53.5 1028.25 53.5C1041.92 53.5 1053.5 56.125 1063 61.375C1072.58 66.5417 1079.88 73.3333 1084.88 81.75C1089.88 90.0833 1092.38 99 1092.38 108.5H1068.38C1068.38 101.667 1066.92 95.625 1064 90.375C1061.08 85.0417 1056.67 80.875 1050.75 77.875C1044.83 74.7917 1037.33 73.25 1028.25 73.25C1019.67 73.25 1012.58 74.5417 1007 77.125C1001.42 79.7083 997.25 83.2083 994.5 87.625C991.833 92.0417 990.5 97.0833 990.5 102.75C990.5 106.583 991.292 110.083 992.875 113.25C994.542 116.333 997.083 119.208 1000.5 121.875C1004 124.542 1008.42 127 1013.75 129.25C1019.17 131.5 1025.62 133.667 1033.12 135.75C1043.46 138.667 1052.38 141.917 1059.88 145.5C1067.38 149.083 1073.54 153.125 1078.38 157.625C1083.29 162.042 1086.92 167.083 1089.25 172.75C1091.67 178.333 1092.88 184.667 1092.88 191.75C1092.88 199.167 1091.38 205.875 1088.38 211.875C1085.38 217.875 1081.08 223 1075.5 227.25C1069.92 231.5 1063.21 234.792 1055.38 237.125C1047.62 239.375 1038.96 240.5 1029.38 240.5C1020.96 240.5 1012.67 239.333 1004.5 237C996.417 234.667 989.042 231.167 982.375 226.5C975.792 221.833 970.5 216.083 966.5 209.25C962.583 202.333 960.625 194.333 960.625 185.25H984.625C984.625 191.5 985.833 196.875 988.25 201.375C990.667 205.792 993.958 209.458 998.125 212.375C1002.38 215.292 1007.17 217.458 1012.5 218.875C1017.92 220.208 1023.54 220.875 1029.38 220.875C1037.79 220.875 1044.92 219.708 1050.75 217.375C1056.58 215.042 1061 211.708 1064 207.375C1067.08 203.042 1068.62 197.917 1068.62 192Z" fill="white"/>
</svg>
